<?xml version="1.0" standalone="no"?>
<!DOCTYPE svg PUBLIC "-//W3C//DTD SVG 20010904//EN"
 "http://www.w3.org/TR/2001/REC-SVG-20010904/DTD/svg10.dtd">
<svg version="1.0" xmlns="http://www.w3.org/2000/svg"
 width="260.000000pt" height="260.000000pt" viewBox="0 0 260.000000 260.000000"
 preserveAspectRatio="xMidYMid meet">
<metadata>
Created by potrace 1.11, written by Peter Selinger 2001-2013
</metadata>
<g transform="translate(0.000000,260.000000) scale(0.100000,-0.100000)"
fill="#EDBA08" stroke="none">
<path d="M605 2589 c-292 -30 -442 -112 -520 -283 -41 -91 -55 -148 -75 -318
-9 -84 -6 -1373 4 -1433 4 -22 16 -80 27 -129 61 -268 220 -383 569 -415 122
-11 1245 -11 1370 0 226 19 359 67 451 162 95 97 133 201 156 427 10 94 10
1310 1 1405 -38 379 -180 532 -543 581 -67 9 -1354 12 -1440 3z"/>
</g>
</svg>
