<?xml version="1.0" encoding="utf-8"?>
<!-- Generator: Adobe Illustrator 16.0.0, SVG Export Plug-In . SVG Version: 6.00 Build 0)  -->
<!DOCTYPE svg PUBLIC "-//W3C//DTD SVG 1.1//EN" "http://www.w3.org/Graphics/SVG/1.1/DTD/svg11.dtd">
<svg version="1.1" xmlns="http://www.w3.org/2000/svg" xmlns:xlink="http://www.w3.org/1999/xlink" x="0px" y="0px" width="104px"
	 height="104px" viewBox="0 0 104 104" enable-background="new 0 0 104 104" xml:space="preserve">
<g id="Layer_1">
	<circle fill="#2E9446" stroke="#ECBA1E" stroke-width="2" stroke-miterlimit="10" cx="52" cy="52" r="49.834"/>
</g>
<g id="Layer_2">
	<g>
		<rect x="2.709" y="13" fill="none" width="98.581" height="78"/>
		<path fill="#FFFFFF" d="M33.942,16.497l-2.376,0.288l4.617,8.991l4.617-8.991l-2.361-0.288v-1.922h7.568v1.922l-1.862,0.288
			l-6.539,12.079v5.419l2.467,0.424v1.907h-7.901v-1.907l2.467-0.424v-5.646L28.22,16.784l-1.847-0.288v-1.922h7.568V16.497z"/>
		<path fill="#FFFFFF" d="M54.814,36.931c-2.28,0-4.093-0.759-5.441-2.278c-1.347-1.519-2.021-3.489-2.021-5.911v-0.666
			c0-2.331,0.694-4.271,2.081-5.82c1.388-1.549,3.03-2.323,4.927-2.323c2.199,0,3.867,0.666,5.002,1.998
			c1.137,1.332,1.703,3.108,1.703,5.328v1.862H50.441l-0.045,0.076c0.03,1.574,0.429,2.868,1.196,3.883
			c0.767,1.014,1.841,1.521,3.223,1.521c1.01,0,1.895-0.144,2.658-0.431c0.762-0.288,1.42-0.684,1.975-1.188l1.166,1.938
			c-0.586,0.565-1.361,1.042-2.324,1.431C57.326,36.737,56.168,36.931,54.814,36.931z M54.361,22.279
			c-0.999,0-1.852,0.421-2.558,1.264c-0.707,0.842-1.141,1.899-1.302,3.171l0.03,0.076h7.552v-0.394c0-1.17-0.313-2.149-0.938-2.937
			S55.592,22.279,54.361,22.279z"/>
		<path fill="#FFFFFF" d="M76.537,25.382h-2.24l-0.484-1.968c-0.363-0.343-0.82-0.618-1.37-0.825c-0.551-0.207-1.173-0.31-1.87-0.31
			c-1.059,0-1.846,0.232-2.361,0.696c-0.514,0.464-0.771,1.024-0.771,1.68c0,0.646,0.227,1.156,0.682,1.529
			c0.453,0.374,1.377,0.707,2.77,0.999c2.068,0.444,3.607,1.047,4.617,1.809c1.009,0.762,1.514,1.784,1.514,3.065
			c0,1.453-0.589,2.629-1.764,3.527c-1.176,0.898-2.712,1.347-4.609,1.347c-1.241,0-2.356-0.144-3.346-0.431
			c-0.988-0.288-1.871-0.704-2.648-1.249l-0.016-3.739h2.24l0.561,2.195c0.343,0.313,0.81,0.54,1.4,0.681
			c0.59,0.142,1.193,0.212,1.809,0.212c1.06,0,1.89-0.214,2.49-0.643c0.6-0.429,0.9-0.992,0.9-1.688c0-0.656-0.25-1.196-0.749-1.62
			c-0.5-0.424-1.446-0.792-2.839-1.105c-1.987-0.434-3.486-1.024-4.495-1.771c-1.009-0.747-1.514-1.756-1.514-3.027
			c0-1.332,0.567-2.467,1.703-3.406c1.135-0.938,2.61-1.408,4.427-1.408c1.242,0,2.356,0.162,3.346,0.484
			c0.989,0.323,1.812,0.772,2.467,1.347L76.537,25.382z"/>
		<path fill="#FFFFFF" d="M38.876,40.574v4.874h-2.543l-0.227-2.528h-4.889v17.362l2.467,0.424v1.907h-7.917v-1.907l2.467-0.424
			V42.92h-4.904l-0.212,2.528h-2.558v-4.874H38.876z"/>
		<path fill="#FFFFFF" d="M46.763,62.932c-2.281,0-4.094-0.76-5.442-2.278c-1.347-1.519-2.021-3.489-2.021-5.911v-0.666
			c0-2.331,0.694-4.271,2.081-5.82c1.388-1.549,3.03-2.323,4.927-2.323c2.2,0,3.868,0.666,5.002,1.998
			c1.136,1.332,1.703,3.108,1.703,5.328v1.862H42.388l-0.045,0.075c0.03,1.574,0.429,2.868,1.196,3.883
			c0.767,1.014,1.841,1.521,3.224,1.521c1.009,0,1.895-0.144,2.657-0.431c0.762-0.288,1.42-0.684,1.975-1.188l1.166,1.938
			c-0.585,0.565-1.36,1.042-2.323,1.431C49.273,62.736,48.115,62.932,46.763,62.932z M46.309,48.279
			c-0.999,0-1.852,0.421-2.558,1.264c-0.707,0.842-1.141,1.899-1.302,3.171l0.03,0.076h7.553v-0.394c0-1.17-0.313-2.149-0.938-2.937
			C48.468,48.672,47.54,48.279,46.309,48.279z"/>
		<path fill="#FFFFFF" d="M55.542,60.706l1.756-0.349l4.829-6.023l-4.678-5.828l-1.756-0.348v-1.922h6.418v1.922l-1.483,0.182
			l3.058,3.936l3.072-3.951l-1.468-0.167v-1.922h6.464v1.922l-1.756,0.348l-4.678,5.828l4.813,6.023l1.771,0.349v1.907h-6.418
			v-1.907l1.453-0.167l-3.209-4.117l-3.209,4.117l1.469,0.167v1.907h-6.448V60.706z"/>
		<path fill="#FFFFFF" d="M79.201,42.285v3.951h3.103v2.21h-3.103v9.945c0,0.767,0.158,1.307,0.477,1.619
			c0.317,0.313,0.739,0.469,1.264,0.469c0.263,0,0.558-0.022,0.886-0.067c0.327-0.046,0.603-0.093,0.825-0.144l0.408,2.043
			c-0.282,0.182-0.696,0.33-1.241,0.446s-1.09,0.175-1.635,0.175c-1.211,0-2.175-0.366-2.892-1.098
			c-0.716-0.732-1.074-1.879-1.074-3.443v-9.945h-2.588v-2.21h2.588v-3.951H79.201z"/>
		<path fill="#FFFFFF" d="M51.863,70.964l-0.076-0.015l-7.129,17.664h-1.983l-7.129-17.649l-0.076,0.015l0.303,8.916v6.388
			l2.467,0.424v1.907h-7.917v-1.907l2.467-0.424V68.92l-2.467-0.424v-1.922h2.467h3.814l7.023,17.906h0.091l7.008-17.906h6.296
			v1.922l-2.467,0.424v17.362l2.467,0.424v1.907h-7.916v-1.907l2.467-0.424v-6.388L51.863,70.964z"/>
		<path fill="#FFFFFF" d="M66.908,88.932c-2.28,0-4.094-0.76-5.441-2.278c-1.347-1.519-2.021-3.489-2.021-5.911v-0.666
			c0-2.331,0.693-4.271,2.081-5.82c1.388-1.549,3.03-2.323,4.928-2.323c2.199,0,3.867,0.666,5.002,1.998
			c1.136,1.332,1.703,3.108,1.703,5.328v1.862H62.534l-0.046,0.075c0.031,1.574,0.43,2.868,1.196,3.883
			c0.767,1.014,1.842,1.521,3.224,1.521c1.01,0,1.895-0.144,2.657-0.431c0.762-0.288,1.42-0.684,1.976-1.188l1.165,1.938
			c-0.585,0.565-1.36,1.042-2.323,1.431C69.419,88.736,68.261,88.932,66.908,88.932z M66.455,74.279c-1,0-1.853,0.421-2.559,1.264
			s-1.141,1.899-1.302,3.171l0.03,0.075h7.553v-0.393c0-1.171-0.313-2.15-0.938-2.938C68.614,74.672,67.686,74.279,66.455,74.279z"
			/>
	</g>
	<g>
	</g>
	<g>
	</g>
	<g>
	</g>
	<g>
	</g>
	<g>
	</g>
	<g>
	</g>
</g>
</svg>
