<?xml version="1.0" encoding="utf-8"?>
<!-- Generator: Adobe Illustrator 16.0.0, SVG Export Plug-In . SVG Version: 6.00 Build 0)  -->
<!DOCTYPE svg PUBLIC "-//W3C//DTD SVG 1.1//EN" "http://www.w3.org/Graphics/SVG/1.1/DTD/svg11.dtd">
<svg version="1.1" xmlns="http://www.w3.org/2000/svg" xmlns:xlink="http://www.w3.org/1999/xlink" x="0px" y="0px" width="104px"
	 height="104px" viewBox="0 0 104 104" enable-background="new 0 0 104 104" xml:space="preserve">
<g id="Layer_1">
	<circle fill="#672634" stroke="#ECBA1E" stroke-width="2" stroke-miterlimit="10" cx="52" cy="52" r="49.834"/>
</g>
<g id="Layer_2">
	<g>
		<rect x="2.709" y="18.333" fill="none" width="98.581" height="67.334"/>
		<path fill="#FFFFFF" d="M36.854,21.266l-1.993,0.241l3.872,7.541l3.872-7.541l-1.98-0.241v-1.612h6.348v1.612l-1.562,0.241
			l-5.484,10.131v4.545l2.069,0.355v1.6h-6.627v-1.6l2.069-0.355v-4.735l-5.383-9.94l-1.549-0.241v-1.612h6.348V21.266z"/>
		<path fill="#FFFFFF" d="M54.361,38.404c-1.913,0-3.434-0.637-4.564-1.911s-1.695-2.926-1.695-4.958v-0.559
			c0-1.955,0.582-3.582,1.746-4.881s2.541-1.949,4.132-1.949c1.845,0,3.243,0.559,4.196,1.676c0.951,1.117,1.428,2.607,1.428,4.469
			v1.562h-8.912l-0.038,0.063c0.025,1.32,0.36,2.406,1.003,3.256s1.544,1.276,2.704,1.276c0.847,0,1.589-0.121,2.228-0.362
			c0.64-0.241,1.191-0.573,1.657-0.997l0.978,1.625c-0.491,0.474-1.141,0.874-1.949,1.2C56.467,38.241,55.495,38.404,54.361,38.404z
			 M53.98,26.115c-0.838,0-1.553,0.354-2.146,1.06s-0.957,1.593-1.092,2.66l0.025,0.063h6.335v-0.33
			c0-0.982-0.263-1.803-0.787-2.463S55.013,26.115,53.98,26.115z"/>
		<path fill="#FFFFFF" d="M72.579,28.718H70.7l-0.406-1.65c-0.305-0.288-0.688-0.519-1.149-0.692
			c-0.461-0.173-0.983-0.26-1.567-0.26c-0.889,0-1.549,0.195-1.98,0.584s-0.647,0.859-0.647,1.409c0,0.542,0.19,0.969,0.571,1.282
			s1.155,0.592,2.323,0.838c1.735,0.373,3.025,0.878,3.872,1.517s1.27,1.496,1.27,2.571c0,1.219-0.493,2.205-1.479,2.958
			c-0.985,0.753-2.274,1.13-3.865,1.13c-1.041,0-1.977-0.121-2.806-0.362s-1.57-0.59-2.222-1.047l-0.013-3.136h1.879l0.47,1.841
			c0.288,0.262,0.68,0.453,1.174,0.571c0.496,0.119,1.001,0.178,1.518,0.178c0.889,0,1.585-0.18,2.088-0.54
			c0.504-0.36,0.756-0.832,0.756-1.416c0-0.55-0.209-1.003-0.629-1.358c-0.418-0.355-1.212-0.665-2.38-0.927
			c-1.667-0.364-2.924-0.859-3.771-1.485s-1.27-1.473-1.27-2.539c0-1.117,0.477-2.069,1.428-2.856
			c0.953-0.787,2.19-1.181,3.714-1.181c1.041,0,1.977,0.135,2.806,0.406s1.52,0.647,2.069,1.13L72.579,28.718z"/>
		<path fill="#FFFFFF" d="M40.993,41.653v4.088H38.86l-0.19-2.12h-4.101v14.562l2.069,0.355v1.6h-6.64v-1.6l2.069-0.355V43.621
			h-4.113l-0.178,2.12h-2.146v-4.088H40.993z"/>
		<path fill="#FFFFFF" d="M47.607,60.404c-1.913,0-3.434-0.637-4.564-1.91c-1.13-1.274-1.695-2.927-1.695-4.958v-0.559
			c0-1.955,0.582-3.582,1.746-4.881s2.541-1.949,4.132-1.949c1.845,0,3.244,0.559,4.196,1.676s1.428,2.607,1.428,4.469v1.562h-8.912
			L43.9,53.917c0.025,1.32,0.36,2.405,1.003,3.257c0.643,0.85,1.544,1.275,2.704,1.275c0.846,0,1.589-0.121,2.228-0.361
			c0.639-0.242,1.191-0.574,1.657-0.997l0.978,1.625c-0.491,0.474-1.141,0.874-1.949,1.2C49.713,60.241,48.742,60.404,47.607,60.404
			z M47.227,48.115c-0.838,0-1.553,0.354-2.146,1.06s-0.957,1.593-1.092,2.66l0.025,0.063h6.335v-0.33
			c0-0.982-0.262-1.803-0.787-2.463S48.259,48.115,47.227,48.115z"/>
		<path fill="#FFFFFF" d="M54.971,58.538l1.473-0.292l4.05-5.053l-3.923-4.888l-1.473-0.292v-1.612h5.383v1.612l-1.244,0.152
			l2.564,3.301l2.577-3.313l-1.231-0.14v-1.612h5.421v1.612l-1.473,0.292l-3.923,4.888l4.037,5.053l1.485,0.292v1.6h-5.383v-1.6
			l1.219-0.14l-2.691-3.453l-2.691,3.453l1.231,0.14v1.6h-5.408V58.538z"/>
		<path fill="#FFFFFF" d="M74.813,43.088v3.313h2.603v1.854h-2.603v8.341c0,0.643,0.134,1.096,0.399,1.358
			c0.268,0.263,0.62,0.394,1.061,0.394c0.22,0,0.468-0.02,0.742-0.057c0.275-0.039,0.506-0.078,0.692-0.121l0.343,1.714
			c-0.237,0.152-0.584,0.277-1.041,0.374c-0.457,0.098-0.914,0.146-1.371,0.146c-1.016,0-1.824-0.307-2.425-0.92
			c-0.601-0.614-0.901-1.576-0.901-2.889v-8.341h-2.171v-1.854h2.171v-3.313H74.813z"/>
		<path fill="#FFFFFF" d="M51.886,67.335l-0.063-0.013l-5.979,14.815H44.18L38.2,67.335l-0.063,0.013l0.254,7.478v5.357l2.069,0.355
			v1.6h-6.64v-1.6l2.069-0.355V65.621l-2.069-0.355v-1.612h2.069h3.199l5.891,15.019h0.076l5.878-15.019h5.281v1.612l-2.069,0.355
			v14.562l2.069,0.355v1.6h-6.64v-1.6l2.069-0.355v-5.357L51.886,67.335z"/>
		<path fill="#FFFFFF" d="M64.505,82.404c-1.913,0-3.435-0.637-4.563-1.911c-1.131-1.273-1.695-2.926-1.695-4.957v-0.559
			c0-1.955,0.582-3.582,1.746-4.881c1.163-1.3,2.541-1.949,4.132-1.949c1.845,0,3.243,0.559,4.196,1.676
			c0.951,1.117,1.428,2.606,1.428,4.469v1.562h-8.912l-0.038,0.063c0.025,1.32,0.359,2.406,1.003,3.256
			c0.644,0.852,1.545,1.276,2.704,1.276c0.847,0,1.589-0.12,2.228-0.362c0.64-0.24,1.191-0.573,1.657-0.996l0.978,1.625
			c-0.491,0.474-1.141,0.874-1.949,1.199C66.61,82.241,65.639,82.404,64.505,82.404z M64.124,70.115
			c-0.838,0-1.553,0.354-2.146,1.06c-0.593,0.707-0.956,1.594-1.092,2.66l0.025,0.063h6.335v-0.33c0-0.981-0.263-1.803-0.787-2.463
			S65.156,70.115,64.124,70.115z"/>
	</g>
	<g>
	</g>
	<g>
	</g>
	<g>
	</g>
	<g>
	</g>
	<g>
	</g>
	<g>
	</g>
</g>
</svg>
