<?xml version="1.0" encoding="utf-8"?>
<!-- Generator: Adobe Illustrator 16.0.0, SVG Export Plug-In . SVG Version: 6.00 Build 0)  -->
<!DOCTYPE svg PUBLIC "-//W3C//DTD SVG 1.1//EN" "http://www.w3.org/Graphics/SVG/1.1/DTD/svg11.dtd">
<svg version="1.1" xmlns="http://www.w3.org/2000/svg" xmlns:xlink="http://www.w3.org/1999/xlink" x="0px" y="0px" width="104px"
	 height="104px" viewBox="0 0 104 104" enable-background="new 0 0 104 104" xml:space="preserve">
<g id="Layer_1">
	<circle fill="#672634" stroke="#ECBA1E" stroke-width="2" stroke-miterlimit="10" cx="52" cy="52" r="49.834"/>
</g>
<g id="Layer_2">
	<g>
		<rect x="2.709" y="25.333" fill="none" width="98.581" height="53.333"/>
		<path fill="#FFFFFF" d="M53.738,26.603v1.55l-1.989,0.342v15.881h-2.405L40.8,30.656l-0.073,0.024v11.816l1.99,0.342v1.538h-6.384
			v-1.538l1.99-0.342V28.495l-1.99-0.342v-1.55h1.99h2.405l8.545,13.708l0.073-0.024V28.495l-1.99-0.342v-1.55h4.395H53.738z"/>
		<path fill="#FFFFFF" d="M55.606,37.65c0-1.953,0.529-3.563,1.587-4.828c1.058-1.266,2.494-1.898,4.309-1.898
			c1.823,0,3.266,0.631,4.328,1.892c1.062,1.262,1.593,2.873,1.593,4.834v0.269c0,1.97-0.529,3.581-1.587,4.834
			c-1.058,1.253-2.494,1.88-4.309,1.88c-1.832,0-3.276-0.628-4.334-1.886c-1.058-1.257-1.587-2.866-1.587-4.828V37.65z
			 M58.012,37.919c0,1.4,0.294,2.556,0.885,3.467c0.59,0.912,1.467,1.367,2.631,1.367c1.139,0,2.006-0.456,2.6-1.367
			c0.594-0.911,0.891-2.067,0.891-3.467V37.65c0-1.383-0.297-2.535-0.891-3.455c-0.594-0.919-1.469-1.379-2.625-1.379
			c-1.155,0-2.025,0.46-2.611,1.379c-0.586,0.92-0.879,2.071-0.879,3.455V37.919z"/>
		<path fill="#FFFFFF" d="M22.416,52.603v3.93h-2.051l-0.183-2.038h-3.943v14.001l1.99,0.342v1.539h-6.384v-1.539l1.99-0.342V54.495
			H9.879l-0.171,2.038H7.646v-3.93H22.416z"/>
		<path fill="#FFFFFF" d="M23.625,68.838l1.99-0.342V53.226l-1.99-0.342v-1.55h4.395v7.592c0.456-0.635,1.013-1.127,1.672-1.477
			s1.392-0.525,2.197-0.525c1.416,0,2.515,0.424,3.296,1.27c0.781,0.848,1.172,2.148,1.172,3.906v6.396l1.99,0.342v1.539h-6.384
			v-1.539l1.99-0.342v-6.42c0-1.091-0.234-1.896-0.702-2.418c-0.468-0.52-1.166-0.781-2.093-0.781c-0.659,0-1.259,0.157-1.8,0.471
			c-0.542,0.313-0.987,0.738-1.337,1.275v7.873l1.99,0.342v1.539h-6.384V68.838z"/>
		<path fill="#FFFFFF" d="M48.71,70.377c-0.073-0.358-0.13-0.68-0.171-0.965c-0.041-0.285-0.069-0.569-0.085-0.854
			c-0.464,0.595-1.044,1.089-1.739,1.483c-0.696,0.395-1.439,0.592-2.228,0.592c-1.375,0-2.421-0.336-3.137-1.008
			c-0.716-0.67-1.074-1.617-1.074-2.838c0-1.252,0.507-2.219,1.52-2.898c1.014-0.68,2.403-1.02,4.169-1.02h2.478v-1.538
			c0-0.772-0.244-1.386-0.732-1.837s-1.168-0.678-2.039-0.678c-0.603,0-1.133,0.078-1.593,0.232
			c-0.46,0.154-0.833,0.365-1.117,0.635l-0.256,1.391h-1.855v-2.563c0.602-0.48,1.331-0.865,2.185-1.154s1.782-0.434,2.783-0.434
			c1.497,0,2.71,0.383,3.638,1.148c0.928,0.765,1.392,1.859,1.392,3.283v6.359c0,0.172,0.002,0.338,0.006,0.501
			c0.004,0.163,0.014,0.325,0.031,0.488l0.977,0.134v1.539H48.71z M44.84,68.619c0.797,0,1.526-0.191,2.185-0.574
			s1.131-0.842,1.416-1.379v-2.174h-2.563c-0.985,0-1.764,0.229-2.337,0.684c-0.574,0.457-0.861,1.01-0.861,1.66
			c0,0.578,0.179,1.02,0.537,1.324C43.575,68.467,44.116,68.619,44.84,68.619z"/>
		<path fill="#FFFFFF" d="M53.508,68.838l1.99-0.342v-9.436l-1.99-0.342v-1.551h4.139l0.17,1.966c0.439-0.7,0.99-1.243,1.654-1.63
			c0.662-0.387,1.418-0.58,2.264-0.58c1.424,0,2.527,0.418,3.309,1.252s1.172,2.122,1.172,3.863v6.457l1.99,0.342v1.539H61.82
			v-1.539l1.99-0.342v-6.408c0-1.164-0.23-1.99-0.689-2.479c-0.461-0.488-1.162-0.732-2.105-0.732c-0.693,0-1.305,0.168-1.838,0.501
			c-0.533,0.334-0.959,0.79-1.275,1.367v7.751l1.99,0.342v1.539h-6.385V68.838z"/>
		<path fill="#FFFFFF" d="M69.62,52.884v-1.55h4.395v11.036h1.538l2.82-3.492l-1.209-0.158v-1.551h5.529v1.551l-1.611,0.317
			l-3.479,4.15l4.236,5.358l1.501,0.293v1.539h-5.481v-1.539l1.233-0.158l-3.503-4.395h-1.575v4.211l1.989,0.342v1.539H69.62v-1.539
			l1.989-0.342V53.226L69.62,52.884z"/>
		<path fill="#FFFFFF" d="M95.254,61.318h-1.807l-0.391-1.586c-0.293-0.277-0.661-0.499-1.104-0.666
			c-0.443-0.166-0.946-0.25-1.507-0.25c-0.855,0-1.49,0.188-1.904,0.562c-0.416,0.374-0.623,0.826-0.623,1.354
			c0,0.521,0.184,0.933,0.549,1.233c0.367,0.302,1.111,0.569,2.234,0.806c1.668,0.358,2.909,0.844,3.723,1.459
			c0.814,0.614,1.221,1.438,1.221,2.472c0,1.172-0.474,2.12-1.422,2.845s-2.187,1.086-3.717,1.086c-1.001,0-1.9-0.115-2.697-0.348
			c-0.798-0.232-1.51-0.568-2.137-1.008l-0.012-3.015h1.807l0.451,1.771c0.276,0.252,0.653,0.436,1.129,0.549
			c0.477,0.114,0.963,0.171,1.459,0.171c0.854,0,1.523-0.173,2.008-0.519s0.727-0.8,0.727-1.361c0-0.529-0.201-0.965-0.604-1.307
			c-0.402-0.342-1.165-0.639-2.288-0.891c-1.604-0.35-2.813-0.826-3.626-1.428c-0.813-0.603-1.221-1.416-1.221-2.441
			c0-1.074,0.458-1.99,1.373-2.747c0.916-0.757,2.106-1.136,3.571-1.136c1,0,1.899,0.131,2.697,0.391
			c0.798,0.262,1.461,0.623,1.99,1.087L95.254,61.318z"/>
	</g>
	<g>
	</g>
	<g>
	</g>
	<g>
	</g>
	<g>
	</g>
	<g>
	</g>
	<g>
	</g>
</g>
</svg>
