<?xml version="1.0" encoding="utf-8"?>
<!-- Generator: Adobe Illustrator 16.0.0, SVG Export Plug-In . SVG Version: 6.00 Build 0)  -->
<!DOCTYPE svg PUBLIC "-//W3C//DTD SVG 1.1//EN" "http://www.w3.org/Graphics/SVG/1.1/DTD/svg11.dtd">
<svg version="1.1" xmlns="http://www.w3.org/2000/svg" xmlns:xlink="http://www.w3.org/1999/xlink" x="0px" y="0px" width="176px"
	 height="176px" viewBox="0 0 176 176" enable-background="new 0 0 176 176" xml:space="preserve">
<g id="Layer_2">
	<circle fill="#FFFFFF" stroke="#7E2D3E" stroke-width="2" stroke-miterlimit="10" cx="88" cy="88" r="86"/>
</g>
<g id="Layer_1">
	<g>
		<rect x="3.333" y="88" fill="none" width="167.667" height="64"/>
		<path fill="#7E2D3E" d="M72.108,89.828v6.82h-3.938l-0.211-2.865h-4.711v18.035l2.742,0.527v3.076H55.374v-3.076l2.742-0.527
			V93.783h-4.693l-0.211,2.865h-3.92v-6.82H72.108z"/>
		<path fill="#7E2D3E" d="M81.767,115.791c-2.742,0-4.934-0.879-6.574-2.637s-2.461-3.99-2.461-6.697v-0.703
			c0-2.824,0.776-5.15,2.329-6.979s3.636-2.736,6.249-2.725c2.566,0,4.559,0.773,5.977,2.32s2.127,3.639,2.127,6.275v2.795H78.058
			l-0.035,0.105c0.094,1.254,0.513,2.285,1.257,3.094s1.755,1.213,3.032,1.213c1.137,0,2.08-0.114,2.83-0.343
			s1.57-0.589,2.461-1.081l1.389,3.164c-0.785,0.621-1.802,1.143-3.05,1.564S83.302,115.791,81.767,115.791z M81.31,100.006
			c-0.949,0-1.699,0.363-2.25,1.09s-0.891,1.682-1.02,2.865l0.053,0.088h6.293v-0.457c0-1.09-0.255-1.96-0.765-2.61
			S82.341,100.006,81.31,100.006z"/>
		<path fill="#7E2D3E" d="M91.617,112.346l1.776-0.281l5.168-6.258l-4.992-6.012l-1.776-0.299v-3.094h8.562v2.971l-1.74,0.211
			l2.883,3.656l2.83-3.656l-1.775-0.211v-2.971h8.596v3.094l-1.723,0.299l-4.887,6.012l5.15,6.258l1.793,0.281v3.076h-8.701v-2.953
			l1.74-0.211l-2.953-3.832l-3.006,3.85l1.529,0.193v2.953h-8.474V112.346z"/>
		<path fill="#7E2D3E" d="M120.998,91.744v4.658h3.34v3.604h-3.34v9.686c0,0.738,0.152,1.266,0.457,1.582s0.715,0.475,1.23,0.475
			c0.352,0,0.659-0.015,0.923-0.044s0.56-0.079,0.888-0.149l0.439,3.709c-0.574,0.176-1.143,0.308-1.705,0.396
			s-1.172,0.132-1.828,0.132c-1.77,0-3.132-0.486-4.087-1.459s-1.433-2.514-1.433-4.623v-9.703h-2.795v-3.604h2.795v-4.658H120.998z
			"/>
		<path fill="#7E2D3E" d="M86.143,123.49l-0.105-0.018l-6.855,18.949h-3.445l-6.82-18.879l-0.105,0.018l0.492,11.232v4.025
			l2.742,0.527v3.076h-10.6v-3.076l2.725-0.527v-18.369l-2.725-0.527v-3.094h2.725h6.697l6.521,18.861h0.105l6.574-18.861h9.458
			v3.094l-2.743,0.527v18.369l2.743,0.527v3.076h-10.6v-3.076l2.725-0.527v-4.025L86.143,123.49z"/>
		<path fill="#7E2D3E" d="M104.907,142.791c-2.742,0-4.934-0.879-6.574-2.637s-2.461-3.99-2.461-6.697v-0.703
			c0-2.824,0.776-5.15,2.329-6.979s3.636-2.736,6.249-2.725c2.566,0,4.559,0.773,5.977,2.32s2.127,3.639,2.127,6.275v2.795h-11.355
			l-0.035,0.105c0.094,1.254,0.513,2.285,1.257,3.094s1.755,1.213,3.032,1.213c1.137,0,2.08-0.114,2.83-0.343
			s1.57-0.589,2.461-1.081l1.389,3.164c-0.785,0.621-1.802,1.143-3.05,1.564S106.442,142.791,104.907,142.791z M104.45,127.006
			c-0.949,0-1.699,0.363-2.25,1.09s-0.891,1.682-1.02,2.865l0.053,0.088h6.293v-0.457c0-1.09-0.255-1.96-0.765-2.61
			S105.481,127.006,104.45,127.006z"/>
	</g>
	<g>
	</g>
	<g>
	</g>
	<g>
	</g>
	<g>
	</g>
	<g>
	</g>
	<g>
	</g>
</g>
</svg>
