<svg xmlns="http://www.w3.org/2000/svg" width="176" height="176" viewBox="0 0 176 176">
  <circle fill="#FFF" stroke="#9D4A63" stroke-miterlimit="10" cx="88" cy="88" r="86"/>
  <path fill="none" d="M3.333 88H171v64H3.333z"/>
  <path fill="#7E2D3E" d="M72.108 89.828v6.82H68.17l-.21-2.865h-4.712v18.035l2.742.527v3.076H55.374v-3.075l2.742-.527V93.783h-4.693l-.21 2.865h-3.92v-6.82h22.815zM81.767 115.79c-2.742 0-4.934-.878-6.574-2.636s-2.46-3.99-2.46-6.697v-.703c0-2.824.775-5.15 2.328-6.98s3.637-2.735 6.25-2.724c2.566 0 4.56.773 5.977 2.32s2.127 3.64 2.127 6.275v2.795H78.058l-.035.105c.094 1.254.513 2.285 1.257 3.094s1.755 1.212 3.032 1.212c1.137 0 2.08-.114 2.83-.343s1.57-.59 2.46-1.082l1.39 3.164c-.785.62-1.802 1.143-3.05 1.564s-2.64.635-4.175.635zm-.457-15.784c-.95 0-1.7.363-2.25 1.09s-.89 1.682-1.02 2.865l.053.09h6.293v-.458c0-1.09-.255-1.96-.765-2.61s-1.28-.976-2.31-.976zM91.617 112.346l1.776-.28 5.168-6.26-4.99-6.01-1.777-.3v-3.094h8.562v2.97l-1.74.212 2.883 3.656 2.83-3.656-1.775-.21V96.4h8.596v3.094l-1.724.3-4.887 6.01 5.15 6.26 1.792.28v3.076h-8.7v-2.953l1.74-.212-2.954-3.832-3.006 3.85 1.53.193v2.952h-8.475v-3.076zM120.998 91.744v4.658h3.34v3.604h-3.34v9.686c0 .738.152 1.266.457 1.582s.715.475 1.23.475c.352 0 .66-.016.923-.045s.56-.08.888-.15l.44 3.71c-.575.176-1.144.308-1.706.396s-1.172.133-1.828.133c-1.77 0-3.132-.486-4.087-1.46s-1.433-2.513-1.433-4.622v-9.702h-2.795v-3.604h2.795v-4.658h5.116zM86.143 123.49l-.105-.018-6.855 18.95h-3.445l-6.82-18.88-.105.018.492 11.232v4.025l2.742.527v3.076h-10.6v-3.076l2.725-.527v-18.37l-2.725-.526v-3.093h9.422l6.52 18.86h.105l6.574-18.86h9.457v3.094l-2.743.528v18.37l2.743.526v3.076h-10.6v-3.076l2.725-.527v-4.025l.49-11.302zM104.907 142.79c-2.742 0-4.934-.878-6.574-2.636s-2.46-3.99-2.46-6.697v-.703c0-2.824.775-5.15 2.328-6.98s3.637-2.735 6.25-2.724c2.566 0 4.56.773 5.977 2.32s2.127 3.64 2.127 6.275v2.795H101.2l-.036.105c.094 1.254.513 2.285 1.257 3.094s1.756 1.212 3.033 1.212c1.137 0 2.08-.114 2.83-.343s1.57-.59 2.46-1.082l1.39 3.164c-.785.62-1.802 1.143-3.05 1.564s-2.64.635-4.176.635zm-.457-15.784c-.95 0-1.7.363-2.25 1.09s-.89 1.682-1.02 2.865l.053.09h6.293v-.458c0-1.09-.255-1.96-.765-2.61s-1.28-.976-2.31-.976z"/>
  <path fill="#4EB365" d="M139.75 70.5c0 6.627-5.373 12-12 12h-83.5c-6.627 0-12-5.373-12-12V56.167c0-6.627 5.373-12 12-12h83.5c6.627 0 12 5.373 12 12V70.5z"/>
  <g>
    <circle fill="none" cx="88" cy="87" r="84"/>
    <path fill="#7E2D3E" d="M22.673 121.17l-.742-.904-4.656 4.44-1.118.902.017.044 1.387-.463 7.47-1.973.69 1.172-5.34 5.585-1.1 1.01.024.04 1.374-.545 6.125-1.95-.436-1.093.854-.504 1.837 3.116-.855.503-.565-.728-10.102 3.077-.698-1.186 5.656-5.943.78-.694-.025-.042-.98.352-7.958 2.04-.694-1.178 7.588-7.345-.363-.848.856-.504 1.832 3.11-.855.505zM21.278 136.622l.984.837 7.5-6.27-.65-1.117.76-.637 1.805 2.158-3.728 3.116c.498-.037.968.035 1.41.215s.83.468 1.16.863c.583.695.826 1.41.73 2.14-.094.73-.573 1.457-1.436 2.18l-3.14 2.625.648 1.117-.755.632-2.62-3.135.754-.632.986.837 3.152-2.636c.536-.448.835-.894.9-1.337.062-.444-.096-.895-.477-1.35-.27-.323-.593-.554-.97-.69-.375-.138-.767-.183-1.174-.134l-3.866 3.232.65 1.117-.756.632-2.62-3.135.754-.63zM30.622 148.574c-.858-.805-1.273-1.73-1.244-2.778.03-1.048.47-2.027 1.326-2.94l.235-.25c.822-.877 1.768-1.362 2.837-1.456 1.07-.093 1.96.195 2.675.865.828.776 1.22 1.616 1.178 2.52s-.457 1.77-1.24 2.606l-.657.7-4-3.75-.044.012c-.545.604-.852 1.23-.92 1.884-.07.653.155 1.224.676 1.712.38.355.764.614 1.152.775.388.16.776.244 1.163.25l-.245 1.14c-.42.007-.88-.087-1.38-.28-.5-.195-1.005-.53-1.513-1.01zm5.002-5.676c-.376-.354-.846-.496-1.41-.428-.562.067-1.1.313-1.61.734l-.014.04 2.843 2.666.14-.148c.412-.44.64-.92.683-1.437.042-.516-.17-.992-.632-1.427zM35.28 151.3l1.157.574L40 147l-.898-.93.585-.8 2.138 1.563-.654 1.08c.493-.195.982-.268 1.47-.217s.953.235 1.39.556c.735.537 1.148 1.17 1.236 1.896.088.727-.196 1.54-.854 2.438l-2.44 3.337.9.928-.58.796-3.3-2.41.582-.796 1.157.575 2.42-3.312c.44-.602.634-1.115.58-1.54s-.322-.817-.81-1.175c-.357-.26-.737-.406-1.138-.435-.402-.03-.793.046-1.176.225l-2.928 4.004.9.93-.582.794-3.298-2.412.582-.794zM65.347 158.532l-.034-.02-6.68 7.214-.956-.363-.203-9.823-.04-.006-1.488 4.356-1.17 3.082 1.11.656-.35.92-3.818-1.45.35-.92 1.268.247 3.185-8.376-1.112-.658.353-.928 1.19.453 1.84.7.105 9.926.044.017 6.665-7.354 3.038 1.155-.353.93-1.268-.25-3.185 8.377 1.113.656-.35.92-3.82-1.45.35-.92 1.27.247 1.17-3.082 1.777-4.256zM76.345 162.774l-.766-.04-4.92 7.798c-.325.513-.727.934-1.206 1.265s-1.05.427-1.712.288c-.117-.024-.268-.07-.45-.138s-.322-.125-.42-.17l.402-1.154c-.03-.012.06.012.268.07s.34.097.397.108c.32.068.61-.017.866-.253.257-.236.497-.52.72-.85l.54-.782-1.263-7.592-.73-.28.202-.97 3.342.697-.203.972-.965-.043.575 4.382.055 1.113.046.01 2.795-4.78-.908-.35.203-.97 3.334.696-.205.974zM95.225 165.23c.046 1.656-.393 3.043-1.313 4.163-.92 1.12-2.135 1.7-3.646 1.74-1.468.04-2.675-.474-3.62-1.542s-1.443-2.43-1.488-4.085l-.004-.164c-.045-1.65.375-3.036 1.262-4.16.887-1.123 2.064-1.705 3.532-1.745 1.51-.042 2.755.475 3.735 1.547s1.493 2.434 1.538 4.084l.005.164zm-1.543-.137c-.036-1.322-.382-2.393-1.037-3.21s-1.543-1.213-2.662-1.183c-1.073.03-1.898.472-2.477 1.326-.58.854-.85 1.94-.814 3.258l.005.18c.037 1.333.367 2.41.99 3.228.626.82 1.474 1.215 2.546 1.186 1.135-.03 2.004-.472 2.605-1.322.603-.85.885-1.943.85-3.282l-.006-.18zM96.424 163.127l-.142-.982 2.622-.378.32 1.193c.177-.462.42-.84.734-1.132.313-.292.693-.47 1.142-.535.12-.018.242-.025.372-.026.128 0 .228.006.298.017l.003 1.444-.873.078c-.402.058-.727.2-.973.428s-.42.522-.52.884l.69 4.803 1.292.036.14.974-4.044.583-.14-.975 1.228-.398-.86-5.978-1.29-.035zM109.91 167.086c-.174.44-.43.807-.768 1.097-.338.29-.762.498-1.27.627-1 .252-1.874.087-2.62-.496-.746-.582-1.268-1.465-1.566-2.646l-.04-.158c-.332-1.318-.32-2.452.04-3.402s1.044-1.553 2.054-1.808c.485-.122.936-.14 1.353-.056.416.086.798.265 1.146.537l-.844-3.34-1.29.1-.24-.962 1.233-.312 1.49-.377 2.69 10.65 1.287-.1.24.954-2.53.64-.367-.948zm-4.73-1.795c.206.824.542 1.442 1.007 1.857s1.05.532 1.758.354c.444-.11.792-.307 1.044-.585s.43-.627.533-1.045l-.96-3.803c-.278-.295-.597-.505-.956-.63-.358-.124-.753-.132-1.183-.023-.712.18-1.164.608-1.355 1.285s-.17 1.486.068 2.43l.04.16zM118.38 165.514c-1.1.422-2.112.392-3.043-.092-.93-.482-1.62-1.308-2.066-2.475l-.122-.32c-.432-1.124-.456-2.187-.073-3.19.382-1.002 1.03-1.68 1.944-2.03 1.06-.406 1.986-.394 2.78.038s1.395 1.183 1.805 2.253l.345.896-5.12 1.965-.01.044c.307.753.738 1.303 1.295 1.65.558.347 1.17.393 1.835.137.486-.186.887-.42 1.2-.698.314-.28.56-.592.732-.938l.92.718c-.178.38-.463.754-.855 1.12s-.915.672-1.566.922zm-2.928-6.977c-.48.185-.814.546-1 1.082-.184.536-.197 1.125-.04 1.768l.03.03 3.64-1.395-.074-.19c-.216-.563-.548-.978-.995-1.24s-.967-.283-1.56-.056zM119.988 156.605l-.445-.887 2.366-1.19.683 1.03c.02-.493.132-.93.336-1.306.203-.376.508-.666.912-.87.107-.054.222-.1.344-.142s.22-.067.288-.08l.46 1.37-.802.35c-.363.183-.625.42-.786.715-.162.294-.232.628-.213 1.003l2.18 4.335 1.235-.377.44.88-3.65 1.835-.44-.878 1.04-.768-2.713-5.396-1.237.377zM138.523 143.89l-.908.727-1.24-1.087c-.308-.008-.654.06-1.04.202-.387.143-.78.375-1.184.697-.638.51-1.02 1.038-1.144 1.58-.125.545-.014 1.034.335 1.47.31.386.742.57 1.297.55.554-.022 1.298-.245 2.23-.672 1.12-.518 2.104-.745 2.95-.683.85.062 1.54.427 2.073 1.093.573.716.742 1.524.507 2.427-.234.902-.823 1.73-1.767 2.486-.683.548-1.38.922-2.09 1.124-.708.2-1.375.255-1.998.16l-1.323-1.653.9-.722 1.253 1.09c.385.005.787-.06 1.206-.195.417-.136.85-.383 1.298-.74.605-.485.98-.997 1.128-1.535.146-.537.044-1.025-.308-1.465-.326-.406-.75-.625-1.275-.655s-1.248.17-2.17.603c-1.118.53-2.116.788-2.993.776s-1.58-.347-2.106-1.005c-.557-.694-.726-1.51-.505-2.442.22-.934.8-1.777 1.743-2.533.622-.498 1.273-.845 1.954-1.04.682-.195 1.3-.265 1.852-.207l1.323 1.65zM144.612 147.896l.725-1.07-7.046-6.772-1.04.767-.714-.687 1.948-2.028 3.504 3.368c-.09-.492-.07-.968.06-1.427.132-.46.375-.875.732-1.247.63-.654 1.31-.974 2.048-.958.737.015 1.51.412 2.322 1.19l2.95 2.838 1.04-.767.71.683-2.83 2.945-.71-.68.725-1.07-2.963-2.85c-.503-.482-.98-.73-1.427-.747-.447-.015-.877.19-1.288.62-.293.304-.486.65-.582 1.04s-.097.78-.005 1.18l3.633 3.493 1.04-.766.71.682-2.83 2.945-.71-.68zM146.33 131.544l-.95 1.21-1.235-.968.95-1.21 1.234.968zm5.845 8.157l.613-1.137-4.752-3.726-.958.867-.78-.612 1.734-2.214 5.706 4.474.958-.867.774.607-2.52 3.216-.775-.607zM158.44 136.985l.5-1.19-7.824-4.992-.87.956-.836-.535 1.396-2.187.944.437c-.173-.444-.237-.892-.19-1.342.045-.45.21-.897.496-1.346.563-.883 1.352-1.345 2.364-1.388s2.094.302 3.244 1.035l.14.09c1.026.654 1.698 1.43 2.015 2.322s.197 1.773-.355 2.64c-.28.437-.6.776-.958 1.014-.358.24-.757.382-1.195.43l2.457 1.567.868-.956.837.534-2.198 3.445-.837-.535zm-1.608-9.245c-.813-.52-1.578-.785-2.298-.8-.72-.014-1.278.29-1.677.914-.235.37-.354.738-.354 1.108s.09.73.277 1.076l3.47 2.214c.4.025.762-.042 1.09-.2.325-.16.61-.43.854-.813.393-.615.465-1.224.22-1.825-.247-.603-.728-1.13-1.443-1.588l-.138-.087zM159.75 118.312l-.503 1.04-1.023-.22c-.24.093-.472.243-.69.45-.22.21-.41.477-.566.8-.238.492-.31.91-.21 1.253s.303.59.607.737c.3.146.588.155.863.028.276-.127.64-.48 1.088-1.062.673-.86 1.3-1.44 1.88-1.736s1.17-.3 1.765-.013c.676.327 1.09.864 1.242 1.612.15.75.015 1.563-.413 2.444-.28.576-.6 1.062-.955 1.456s-.75.71-1.177.95l-1.74-.837.506-1.04 1.145.234c.222-.09.433-.255.63-.498.2-.242.368-.506.507-.792.24-.492.326-.926.263-1.3-.063-.377-.258-.643-.58-.8-.306-.147-.612-.153-.922-.017s-.693.492-1.152 1.068c-.65.827-1.26 1.39-1.835 1.69-.573.3-1.155.307-1.746.02-.618-.3-1.018-.818-1.198-1.557-.18-.74-.065-1.53.344-2.373.28-.577.606-1.06.98-1.444.372-.387.766-.668 1.18-.843l1.71.75z"/>
  </g>
  <g>
    <circle fill="none" cx="88" cy="88.999" r="84"/>
    <path fill="#7E2D3E" d="M159.42 44.563l-.805.566-.91-.917-7.333 5.15.553 1.17-.812.568-5.02-7.145 2.237-1.57.758 1.08-1.174.977 2.573 3.663 3.01-2.115-2.5-3.56.99-.697 2.5 3.56 3.332-2.34-2.628-3.737-1.318.772-.755-1.073 2.23-1.567 5.07 7.215zM149.127 31.405c-.14.188-.268.354-.385.494-.117.142-.24.277-.37.406.482-.034.966.028 1.452.19s.898.428 1.237.803c.592.652.88 1.292.87 1.92-.01.628-.307 1.205-.886 1.73-.596.537-1.27.71-2.03.522-.756-.19-1.514-.703-2.272-1.54l-1.063-1.177-.73.66c-.367.332-.554.71-.56 1.136-.003.427.18.847.556 1.26.258.286.523.505.793.656.27.152.53.238.78.258l.77-.476.798.88-1.217 1.1c-.485-.08-.98-.26-1.484-.54s-.97-.66-1.4-1.135c-.643-.71-.982-1.45-1.018-2.22-.035-.77.285-1.46.96-2.07l3.02-2.73c.08-.072.16-.146.235-.218.075-.072.148-.146.218-.224l-.354-.52.73-.66 1.35 1.495zm.826 2.59c-.342-.377-.746-.64-1.21-.79-.465-.148-.886-.175-1.263-.08l-1.03.934 1.1 1.216c.423.467.865.74 1.328.816.462.076.85-.025 1.157-.305.274-.248.407-.523.398-.824s-.17-.623-.48-.967zM137.584 28.498l.865.768-.488.926c.023.256.104.52.247.787.14.27.346.52.614.76.41.362.793.543 1.15.54.357-.004.648-.132.873-.386.222-.25.31-.523.26-.823-.047-.298-.29-.743-.727-1.333-.646-.88-1.034-1.64-1.163-2.28-.128-.64.026-1.206.466-1.7.497-.562 1.127-.815 1.89-.76.76.057 1.507.41 2.24 1.06.48.425.86.862 1.144 1.312.283.45.482.912.596 1.39l-1.275 1.448-.865-.768.535-1.04c-.024-.237-.127-.484-.307-.742-.18-.256-.388-.49-.625-.7-.41-.364-.804-.565-1.182-.605-.38-.04-.688.074-.926.344-.226.253-.313.548-.266.882.05.334.288.8.72 1.397.618.85.995 1.59 1.128 2.224.135.635-.017 1.197-.452 1.69-.456.514-1.063.758-1.823.73s-1.49-.35-2.19-.972c-.48-.426-.856-.87-1.128-1.334-.27-.462-.435-.918-.49-1.364l1.18-1.452zM128.654 24.062l.687.342 7.61-5.206c.503-.342 1.04-.57 1.61-.683.57-.113 1.133.024 1.686.415.098.068.217.17.357.305.143.135.248.242.318.324l-.825.897c.02.022-.05-.035-.22-.172-.165-.138-.272-.223-.32-.256-.268-.19-.566-.227-.896-.112-.33.115-.663.28-1 .495l-.805.504-1.854 7.47.562.547-.57.81-2.79-1.967.57-.81.87.42 1.21-4.25.39-1.044-.037-.026-4.463 3.277.695.682-.57.812-2.785-1.964.572-.812zM122.592 12.474c-.058.228-.113.43-.168.604-.056.176-.117.35-.188.517.433-.215.903-.34 1.414-.376.512-.036.994.055 1.45.272.794.38 1.306.862 1.533 1.448.228.584.173 1.23-.163 1.935-.346.724-.906 1.142-1.678 1.255-.773.11-1.67-.075-2.69-.563l-1.43-.684-.425.888c-.213.447-.24.868-.084 1.265.158.396.487.713.99.954.348.164.676.267.984.305.308.037.58.02.82-.058l.53-.733 1.073.513-.71 1.48c-.478.11-1.005.13-1.58.062-.57-.07-1.147-.244-1.726-.52-.864-.414-1.46-.97-1.783-1.667s-.29-1.458.105-2.28l1.756-3.672c.048-.098.093-.195.136-.29.043-.096.082-.19.117-.29l-.527-.348.426-.888 1.82.87zm1.748 2.083c-.46-.22-.934-.31-1.42-.27-.486.038-.885.174-1.2.404l-.6 1.256 1.48.708c.57.27 1.082.355 1.54.25.457-.104.775-.345.955-.72.16-.334.178-.64.055-.913-.12-.276-.392-.512-.81-.713zM118.674 11.76l-1.277-.195-1.905 5.73 1.14.61-.313.94-2.514-.835.293-1.228c-.41.336-.855.554-1.335.655-.48.1-.98.065-1.492-.105-.864-.287-1.45-.763-1.756-1.428-.307-.664-.283-1.525.068-2.583l1.303-3.92-1.14-.61.312-.933 3.877 1.287-.31.935-1.278-.194-1.295 3.892c-.235.707-.262 1.256-.08 1.645.18.39.557.68 1.13.87.42.14.825.162 1.217.066.39-.096.74-.286 1.05-.573l1.565-4.708-1.14-.61.31-.934 3.88 1.288-.313.935zM102.336 7.297c.345-.326.73-.548 1.16-.667.43-.118.9-.127 1.418-.027 1.012.196 1.732.716 2.16 1.56.428.845.526 1.865.295 3.062l-.032.16c-.26 1.336-.752 2.357-1.48 3.064-.73.707-1.604.962-2.627.765-.49-.096-.905-.27-1.247-.525-.34-.254-.61-.578-.81-.972l-.655 3.382 1.21.457-.19.975-1.25-.243-1.51-.293 2.088-10.784-1.21-.456.19-.967 2.56.496-.07 1.01zm3.52 3.635c.163-.834.122-1.537-.123-2.11-.245-.57-.726-.928-1.44-1.066-.45-.087-.85-.058-1.195.088-.346.145-.655.385-.928.72l-.744 3.85c.127.386.326.71.598.976.273.266.627.44 1.06.523.723.14 1.314-.056 1.774-.587.46-.532.784-1.276.97-2.23l.03-.164zM84.638 12.884l1.086.02.26 1.616c.243.25.547.455.908.618.362.163.795.25 1.3.26 1.183.02 2.1-.39 2.75-1.234.653-.844.99-1.925 1.017-3.243l.002-.178c.024-1.318-.267-2.414-.872-3.287-.605-.874-1.46-1.32-2.564-1.34-.516-.012-.986.06-1.41.214s-.755.345-.99.574l-.32 1.604-1.085-.02.04-2.024c.336-.415.835-.782 1.498-1.1.662-.32 1.425-.47 2.29-.453 1.48.028 2.683.598 3.61 1.71.926 1.11 1.373 2.494 1.342 4.15l-.002.164c-.032 1.666-.524 3.037-1.477 4.11-.952 1.073-2.184 1.595-3.694 1.566-.865-.016-1.622-.198-2.27-.547-.65-.348-1.136-.733-1.456-1.156l.038-2.023zM82.753 9.463c.14 1.242-.082 2.303-.663 3.185-.583.88-1.45 1.386-2.604 1.516-1.16.13-2.122-.166-2.888-.894-.766-.726-1.22-1.712-1.36-2.96l-.018-.17c-.142-1.253.08-2.315.662-3.19.583-.872 1.452-1.374 2.605-1.503 1.165-.132 2.128.164 2.89.89.765.723 1.216 1.708 1.356 2.955l.02.17zm-1.55.002c-.1-.89-.37-1.604-.81-2.142s-1.032-.765-1.772-.68c-.723.08-1.242.432-1.554 1.055-.313.622-.42 1.378-.32 2.27l.02.17c.1.88.37 1.59.814 2.133s1.033.773 1.77.69c.734-.083 1.254-.438 1.562-1.064.307-.627.41-1.38.31-2.26l-.018-.17zM72.918 7.297l-1.186.514 1.425 5.87 1.29-.09.233.966-2.574.625-.403-1.195c-.167.5-.43.923-.783 1.263-.353.34-.793.574-1.32.702-.886.215-1.634.122-2.247-.278s-1.05-1.143-1.313-2.226l-.975-4.017-1.288.088-.233-.957 3.97-.964.234.957-1.186.513.968 3.986c.176.724.443 1.202.803 1.437.36.233.833.28 1.42.137.43-.104.786-.3 1.067-.59.28-.287.477-.634.587-1.042l-1.17-4.82-1.29.088-.23-.957 3.97-.964.23.955zM61.598 17.217l.894-.51-3.343-3.875-.35-.52-.043.017.078.62.137 5.1 1.012-.22.354.928-3.05 1.163-.355-.926.607-.358.035-7.872 1.088-.414 5.294 5.842.69-.14.355.93-3.05 1.162-.354-.927zM49.18 14.396c1.045-.54 2.058-.623 3.035-.247.978.376 1.754 1.12 2.327 2.23l.16.304c.552 1.07.693 2.123.425 3.163-.27 1.038-.838 1.782-1.707 2.233-1.01.52-1.93.612-2.768.27-.836-.34-1.518-1.02-2.045-2.038l-.44-.854 4.87-2.52.003-.046c-.387-.714-.877-1.214-1.47-1.496-.59-.283-1.204-.26-1.838.067-.463.24-.834.515-1.115.827-.28.313-.49.65-.624 1.014l-.993-.61c.134-.4.376-.802.726-1.208s.834-.77 1.454-1.09zm3.683 6.608c.457-.236.748-.633.873-1.186.123-.555.07-1.142-.155-1.763l-.03-.028-3.464 1.793.094.18c.277.537.653.91 1.126 1.123.474.213.993.173 1.557-.12zM45.04 17.89l-.926.9 3.412 4.98 1.174-.538.56.818-2.185 1.496-.8-.976c.02.528-.074 1.015-.284 1.46-.21.443-.54.818-.986 1.123-.75.516-1.485.694-2.2.536s-1.385-.698-2.015-1.617l-2.336-3.41-1.174.54-.556-.814 3.37-2.31.557.813-.927.9 2.317 3.384c.42.614.84.968 1.26 1.06.42.09.88-.034 1.378-.375.365-.25.63-.56.79-.93.16-.368.22-.763.178-1.183l-2.803-4.094-1.174.54-.558-.813 3.37-2.31.558.816zM35.988 24.363l-.832.99 3.895 4.614 1.115-.654.64.758-2.148 1.815-4.675-5.54-1.115.655-.636-.753 3.123-2.635.635.75zm4.065 9.176l1.175-.994 1.014 1.2-1.177.993-1.012-1.2zM28.03 30.052c.828-.836 1.765-1.227 2.81-1.17s2.015.527 2.903 1.406l.244.24c.855.848 1.315 1.806 1.38 2.878.063 1.07-.25 1.955-.938 2.65-.8.808-1.65 1.178-2.55 1.11-.9-.067-1.76-.504-2.573-1.31l-.683-.677 3.858-3.898-.012-.044c-.59-.56-1.208-.885-1.857-.972-.65-.086-1.228.123-1.73.63-.365.37-.634.748-.805 1.132s-.266.77-.282 1.156l-1.134-.276c.005-.42.112-.877.32-1.372.207-.493.557-.988 1.047-1.484zm5.54 5.154c.362-.367.517-.833.465-1.398-.054-.564-.283-1.107-.69-1.63l-.04-.015-2.74 2.77.143.144c.43.425.9.666 1.418.723.515.054.997-.144 1.443-.594zM25.162 34.657l-.605 1.142 4.778 3.69.95-.872.787.605-1.62 2.095-1.062-.683c.182.497.24.99.178 1.477-.064.487-.262.944-.593 1.373-.557.722-1.2 1.116-1.93 1.186-.727.07-1.532-.235-2.414-.918l-3.27-2.526-.95.873-.78-.603 2.5-3.232.778.603-.606 1.14 3.245 2.51c.59.454 1.1.66 1.525.62.428-.043.826-.303 1.195-.78.27-.35.426-.727.466-1.127.04-.398-.025-.793-.194-1.18l-3.926-3.032-.952.873-.778-.6 2.5-3.233.778.6zM25.194 50.898l-1.734-1.07-.842 1.36-.97-.598.842-1.363-4.368-2.696c-.336-.207-.617-.284-.84-.23-.224.056-.407.198-.55.43-.07.115-.14.25-.21.406-.068.156-.122.29-.16.4l-1.01-.374c-.002-.173.046-.395.142-.666.098-.27.22-.525.367-.766.33-.53.752-.854 1.267-.97.516-.118 1.117.036 1.805.46l4.366 2.697L24 46.78l.97.6-.7 1.137 1.734 1.072-.81 1.308z"/>
  </g>
  <g>
    <path fill="none" d="M32.667 33.334h106.5v37h-106.5z"/>
    <path fill="#FFF" d="M113.877 60.117c.313-.327.773-.636 1.385-.926.61-.29 1.403-.435 2.38-.435 1.426 0 2.59.5 3.49 1.5.9 1.002 1.35 2.3 1.35 3.897v.176c0 1.606-.444 2.908-1.335 3.904s-2.076 1.494-3.557 1.494c-.79 0-1.484-.124-2.083-.37-.6-.247-1.103-.573-1.513-.978v-1.934h1.01l.353 1.472c.24.195.528.356.868.483s.746.19 1.22.19c1.15 0 2.04-.396 2.662-1.184.622-.79.934-1.81.934-3.065v-.19c0-1.273-.3-2.304-.903-3.09s-1.435-1.18-2.494-1.18c-.58 0-1.058.062-1.43.184s-.667.256-.892.403v2.336l1.75.073v1.062h-3.192v-3.82zM108.457 58.755c1.104 0 1.98.367 2.633 1.102s.98 1.688.98 2.86v.322c0 1.127-.337 2.065-1.01 2.815-.67.75-1.465 1.124-2.383 1.124-1.064 0-1.872-.323-2.42-.968s-.825-1.504-.825-2.578v-.9h5.143l.02-.038c-.014-.762-.206-1.388-.577-1.88-.37-.49-.892-.735-1.56-.735-.49 0-.917.07-1.286.21-.37.14-.688.33-.956.574l-.563-.938c.283-.273.658-.504 1.123-.692.466-.185 1.027-.28 1.68-.28zm.22 7.09c.483 0 .896-.204 1.237-.612s.553-.92.63-1.534l-.015-.038h-3.655v.19c0 .566.15 1.04.454 1.42s.75.573 1.347.573zM101.492 68.745v-1.912H99.99v-1.07h1.502v-4.81c0-.372-.077-.633-.23-.785-.154-.15-.358-.227-.612-.227-.127 0-.27.012-.43.034-.157.022-.29.045-.397.07l-.198-.99c.137-.087.337-.16.6-.215s.528-.085.792-.085c.586 0 1.053.177 1.398.53.348.355.52.91.52 1.668v4.812h1.254v1.07h-1.254v1.91h-1.444zM89.62 58.91c.043.214.077.407.102.578s.042.342.052.513c.277-.355.625-.652 1.043-.89.418-.235.863-.354 1.337-.354.825 0 1.452.202 1.882.604.43.403.645.97.645 1.703 0 .752-.302 1.332-.91 1.74-.608.407-1.442.61-2.5.61h-1.49v.924c0 .464.146.832.44 1.102.292.27.7.406 1.223.406.36 0 .68-.046.955-.14.276-.092.5-.22.67-.38l.154-.835h1.113v1.54c-.36.287-.8.518-1.31.69-.515.174-1.07.26-1.67.26-.9 0-1.628-.228-2.185-.687-.556-.46-.834-1.116-.834-1.97v-3.816c0-.103 0-.203-.004-.3-.002-.098-.008-.195-.018-.293l-.586-.08v-.924h1.89zm2.32 1.053c-.478 0-.915.115-1.31.344s-.68.505-.85.828v1.304h1.537c.59 0 1.06-.138 1.402-.41s.516-.606.516-.997c0-.347-.107-.61-.322-.795-.214-.183-.54-.275-.973-.275zM74.32 69.573v-2.358h1.23l.108 1.223h2.365v-8.4l-1.193-.206v-.923h3.83v.922l-1.193.205v8.4h2.373l.103-1.222h1.237v2.358h-8.86zM70.504 58.755c1.104 0 1.98.367 2.633 1.102.65.735.978 1.688.978 2.86v.322c0 1.127-.336 2.065-1.007 2.815-.672.75-1.466 1.124-2.385 1.124-1.063 0-1.87-.323-2.42-.968-.55-.645-.824-1.504-.824-2.578v-.9h5.14l.023-.038c-.016-.762-.208-1.388-.58-1.88-.37-.49-.89-.735-1.56-.735-.487 0-.916.07-1.285.21-.368.14-.687.33-.956.574l-.563-.938c.282-.273.657-.504 1.123-.692.466-.185 1.027-.28 1.68-.28zm.22 7.09c.483 0 .895-.204 1.237-.612s.553-.92.63-1.534l-.014-.038h-3.654v.19c0 .566.15 1.04.453 1.42.304.382.753.573 1.348.573zM66.255 59.832l-.85.168-2.337 2.915 2.264 2.82.85.168v.93h-3.105v-.93l.718-.088-1.48-1.904-1.485 1.913.71.08v.93h-3.13v-.93l.85-.167 2.264-2.82L59.194 60l-.856-.168v-.923h3.105v.922l-.703.08 1.553 1.993 1.553-1.992-.71-.08v-.924h3.12v.922zM54.807 68.745v-1.912h-1.5v-1.07h1.5v-4.81c0-.372-.076-.633-.23-.785-.153-.15-.357-.227-.61-.227-.128 0-.27.012-.43.034-.158.022-.29.045-.4.07l-.196-.99c.138-.087.338-.16.602-.215s.527-.085.79-.085c.587 0 1.054.177 1.4.53s.52.91.52 1.668v4.812h1.252v1.07H56.25v1.91h-1.443zM49.996 58.91h1.443v1.493h-1.444V58.91zm0 3.5h1.443v7.163h-1.444V62.41z"/>
    <path fill="#4EB365" d="M48.547 41.634l-8.71-3.674 1.174 9.38 1.174 9.377 7.536-5.705 7.535-5.705"/>
  </g>
</svg>
