<?xml version="1.0" encoding="utf-8"?>
<!-- Generator: Adobe Illustrator 16.0.0, SVG Export Plug-In . SVG Version: 6.00 Build 0)  -->
<!DOCTYPE svg PUBLIC "-//W3C//DTD SVG 1.1//EN" "http://www.w3.org/Graphics/SVG/1.1/DTD/svg11.dtd">
<svg version="1.1" xmlns="http://www.w3.org/2000/svg" xmlns:xlink="http://www.w3.org/1999/xlink" x="0px" y="0px" width="176px"
	 height="176px" viewBox="0 0 176 176" enable-background="new 0 0 176 176" xml:space="preserve">
<g id="Layer_2">
	<circle fill="#FFFFFF" stroke="#9D4A63" stroke-miterlimit="10" cx="88" cy="88" r="86"/>
</g>
<g id="Layer_1">
	<g>
		<rect x="3.333" y="88" fill="none" width="167.667" height="64"/>
		<path fill="#7E2D3E" d="M72.108,89.828v6.82h-3.938l-0.211-2.865h-4.711v18.035l2.742,0.527v3.076H55.374v-3.076l2.742-0.527
			V93.783h-4.693l-0.211,2.865h-3.92v-6.82H72.108z"/>
		<path fill="#7E2D3E" d="M81.767,115.791c-2.742,0-4.934-0.879-6.574-2.637s-2.461-3.99-2.461-6.697v-0.703
			c0-2.824,0.776-5.15,2.329-6.979s3.636-2.736,6.249-2.725c2.566,0,4.559,0.773,5.977,2.32s2.127,3.639,2.127,6.275v2.795H78.058
			l-0.035,0.105c0.094,1.254,0.513,2.285,1.257,3.094s1.755,1.213,3.032,1.213c1.137,0,2.08-0.114,2.83-0.343
			s1.57-0.589,2.461-1.081l1.389,3.164c-0.785,0.621-1.802,1.143-3.05,1.564S83.302,115.791,81.767,115.791z M81.31,100.006
			c-0.949,0-1.699,0.363-2.25,1.09s-0.891,1.682-1.02,2.865l0.053,0.088h6.293v-0.457c0-1.09-0.255-1.96-0.765-2.61
			S82.341,100.006,81.31,100.006z"/>
		<path fill="#7E2D3E" d="M91.617,112.346l1.776-0.281l5.168-6.258l-4.992-6.012l-1.776-0.299v-3.094h8.562v2.971l-1.74,0.211
			l2.883,3.656l2.83-3.656l-1.775-0.211v-2.971h8.596v3.094l-1.723,0.299l-4.887,6.012l5.15,6.258l1.793,0.281v3.076h-8.701v-2.953
			l1.74-0.211l-2.953-3.832l-3.006,3.85l1.529,0.193v2.953h-8.474V112.346z"/>
		<path fill="#7E2D3E" d="M120.998,91.744v4.658h3.34v3.604h-3.34v9.686c0,0.738,0.152,1.266,0.457,1.582s0.715,0.475,1.23,0.475
			c0.352,0,0.659-0.015,0.923-0.044s0.56-0.079,0.888-0.149l0.439,3.709c-0.574,0.176-1.143,0.308-1.705,0.396
			s-1.172,0.132-1.828,0.132c-1.77,0-3.132-0.486-4.087-1.459s-1.433-2.514-1.433-4.623v-9.703h-2.795v-3.604h2.795v-4.658H120.998z
			"/>
		<path fill="#7E2D3E" d="M86.143,123.49l-0.105-0.018l-6.855,18.949h-3.445l-6.82-18.879l-0.105,0.018l0.492,11.232v4.025
			l2.742,0.527v3.076h-10.6v-3.076l2.725-0.527v-18.369l-2.725-0.527v-3.094h2.725h6.697l6.521,18.861h0.105l6.574-18.861h9.458
			v3.094l-2.743,0.527v18.369l2.743,0.527v3.076h-10.6v-3.076l2.725-0.527v-4.025L86.143,123.49z"/>
		<path fill="#7E2D3E" d="M104.907,142.791c-2.742,0-4.934-0.879-6.574-2.637s-2.461-3.99-2.461-6.697v-0.703
			c0-2.824,0.776-5.15,2.329-6.979s3.636-2.736,6.249-2.725c2.566,0,4.559,0.773,5.977,2.32s2.127,3.639,2.127,6.275v2.795h-11.355
			l-0.035,0.105c0.094,1.254,0.513,2.285,1.257,3.094s1.755,1.213,3.032,1.213c1.137,0,2.08-0.114,2.83-0.343
			s1.57-0.589,2.461-1.081l1.389,3.164c-0.785,0.621-1.802,1.143-3.05,1.564S106.442,142.791,104.907,142.791z M104.45,127.006
			c-0.949,0-1.699,0.363-2.25,1.09s-0.891,1.682-1.02,2.865l0.053,0.088h6.293v-0.457c0-1.09-0.255-1.96-0.765-2.61
			S105.481,127.006,104.45,127.006z"/>
	</g>
	<path fill="#4EB365" d="M139.75,70.5c0,6.627-5.373,12-12,12h-83.5c-6.627,0-12-5.373-12-12V56.167c0-6.627,5.373-12,12-12h83.5
		c6.627,0,12,5.373,12,12V70.5z"/>
</g>
<g id="Layer_3">
	<g>
		<circle fill="none" cx="88" cy="87" r="84"/>
		<path fill="#7E2D3E" d="M22.673,121.171l-0.742-0.905l-4.657,4.439l-1.118,0.903l0.017,0.044l1.387-0.463l7.471-1.972l0.69,1.172
			l-5.341,5.586l-1.1,1.011l0.024,0.04l1.374-0.546l6.125-1.949l-0.436-1.094l0.854-0.504l1.836,3.116l-0.855,0.504l-0.565-0.728
			l-10.102,3.077l-0.698-1.186l5.656-5.943l0.779-0.694l-0.024-0.041l-0.981,0.352l-7.957,2.04l-0.694-1.178l7.588-7.345
			l-0.363-0.848l0.855-0.503l1.832,3.109L22.673,121.171z"/>
		<path fill="#7E2D3E" d="M21.278,136.622l0.984,0.837l7.499-6.269l-0.649-1.117l0.761-0.637l1.804,2.158l-3.728,3.116
			c0.499-0.037,0.969,0.035,1.412,0.215s0.829,0.468,1.16,0.863c0.582,0.695,0.825,1.409,0.73,2.14
			c-0.095,0.731-0.574,1.457-1.437,2.179l-3.141,2.626l0.649,1.117l-0.755,0.632l-2.621-3.135l0.755-0.632l0.985,0.837l3.152-2.636
			c0.536-0.448,0.835-0.894,0.899-1.337c0.063-0.443-0.095-0.894-0.476-1.349c-0.271-0.323-0.594-0.554-0.97-0.691
			c-0.376-0.137-0.768-0.182-1.175-0.133l-3.866,3.232l0.649,1.117l-0.755,0.632l-2.621-3.135L21.278,136.622z"/>
		<path fill="#7E2D3E" d="M30.622,148.574c-0.858-0.805-1.273-1.731-1.244-2.778c0.029-1.048,0.471-2.027,1.326-2.939l0.235-0.25
			c0.823-0.878,1.769-1.363,2.838-1.457c1.069-0.093,1.961,0.195,2.675,0.865c0.828,0.776,1.221,1.616,1.178,2.519
			s-0.457,1.771-1.24,2.607l-0.657,0.7l-4-3.751l-0.044,0.012c-0.544,0.604-0.851,1.231-0.92,1.884
			c-0.069,0.653,0.156,1.224,0.677,1.712c0.379,0.355,0.764,0.614,1.152,0.775c0.388,0.16,0.776,0.244,1.163,0.25l-0.246,1.141
			c-0.42,0.006-0.88-0.088-1.379-0.281C31.635,149.388,31.13,149.052,30.622,148.574z M35.624,142.898
			c-0.376-0.354-0.846-0.496-1.409-0.428c-0.563,0.067-1.1,0.313-1.61,0.734l-0.015,0.039l2.843,2.667l0.139-0.148
			c0.413-0.44,0.641-0.92,0.684-1.437C36.298,143.809,36.087,143.333,35.624,142.898z"/>
		<path fill="#7E2D3E" d="M35.28,151.3l1.157,0.574l3.564-4.875l-0.899-0.928l0.585-0.801l2.138,1.563l-0.654,1.08
			c0.492-0.195,0.981-0.268,1.47-0.217s0.952,0.235,1.389,0.556c0.735,0.537,1.148,1.17,1.236,1.896
			c0.088,0.727-0.196,1.539-0.854,2.438l-2.439,3.337l0.899,0.928l-0.581,0.795l-3.298-2.411l0.581-0.795l1.157,0.575l2.42-3.312
			c0.439-0.602,0.633-1.115,0.58-1.541s-0.323-0.816-0.811-1.174c-0.357-0.261-0.737-0.406-1.138-0.435
			c-0.402-0.029-0.793,0.046-1.176,0.225l-2.928,4.004l0.899,0.929l-0.581,0.795l-3.298-2.412L35.28,151.3z"/>
		<path fill="#7E2D3E" d="M65.347,158.532l-0.034-0.021l-6.679,7.215l-0.957-0.363l-0.203-9.823l-0.039-0.006l-1.489,4.356
			l-1.171,3.082l1.112,0.656l-0.35,0.921l-3.819-1.452l0.35-0.92l1.268,0.248l3.185-8.376l-1.113-0.657l0.353-0.928l1.19,0.453
			l1.84,0.699l0.104,9.927l0.044,0.017l6.666-7.354l3.038,1.155l-0.353,0.928l-1.268-0.248l-3.185,8.376l1.113,0.656l-0.35,0.921
			l-3.819-1.452l0.35-0.92l1.268,0.248l1.172-3.082L65.347,158.532z"/>
		<path fill="#7E2D3E" d="M76.345,162.774l-0.766-0.041l-4.919,7.799c-0.325,0.513-0.727,0.934-1.206,1.265s-1.05,0.427-1.712,0.288
			c-0.117-0.024-0.268-0.07-0.45-0.138s-0.322-0.125-0.419-0.171l0.401-1.153c-0.03-0.012,0.06,0.012,0.268,0.071
			s0.341,0.096,0.397,0.107c0.321,0.067,0.61-0.018,0.867-0.254c0.257-0.236,0.497-0.52,0.721-0.851l0.538-0.781l-1.262-7.592
			l-0.731-0.28l0.203-0.971l3.342,0.698l-0.203,0.972l-0.965-0.043l0.576,4.383l0.055,1.113l0.046,0.01l2.795-4.779l-0.909-0.35
			l0.203-0.972l3.334,0.697L76.345,162.774z"/>
		<path fill="#7E2D3E" d="M95.225,165.23c0.046,1.656-0.393,3.043-1.313,4.163c-0.92,1.119-2.135,1.699-3.646,1.74
			c-1.468,0.04-2.675-0.474-3.621-1.542s-1.442-2.431-1.487-4.086l-0.004-0.164c-0.045-1.65,0.375-3.037,1.262-4.161
			c0.887-1.123,2.064-1.705,3.532-1.745c1.51-0.042,2.755,0.475,3.735,1.547s1.493,2.434,1.538,4.084L95.225,165.23z
			 M93.682,165.093c-0.036-1.322-0.382-2.393-1.037-3.211s-1.543-1.212-2.662-1.182c-1.073,0.029-1.898,0.472-2.477,1.326
			c-0.579,0.854-0.85,1.94-0.814,3.258l0.005,0.18c0.037,1.333,0.367,2.409,0.991,3.228c0.625,0.819,1.473,1.215,2.545,1.186
			c1.135-0.031,2.004-0.472,2.605-1.322c0.603-0.85,0.885-1.943,0.849-3.282L93.682,165.093z"/>
		<path fill="#7E2D3E" d="M96.424,163.127l-0.142-0.982l2.622-0.378l0.321,1.193c0.176-0.462,0.42-0.839,0.733-1.132
			c0.313-0.292,0.693-0.471,1.142-0.535c0.119-0.018,0.242-0.025,0.372-0.026c0.128,0,0.228,0.006,0.298,0.017l0.003,1.444
			l-0.873,0.078c-0.402,0.058-0.727,0.2-0.973,0.428s-0.419,0.522-0.52,0.884l0.691,4.803l1.291,0.035l0.141,0.974l-4.044,0.583
			l-0.141-0.975l1.229-0.398l-0.86-5.978L96.424,163.127z"/>
		<path fill="#7E2D3E" d="M109.91,167.086c-0.174,0.441-0.43,0.807-0.768,1.097c-0.338,0.289-0.762,0.498-1.271,0.627
			c-1,0.252-1.873,0.087-2.619-0.496c-0.746-0.582-1.268-1.465-1.566-2.646l-0.04-0.158c-0.332-1.318-0.319-2.452,0.04-3.402
			s1.044-1.553,2.054-1.808c0.485-0.122,0.936-0.141,1.353-0.056c0.416,0.086,0.798,0.265,1.146,0.537l-0.843-3.341l-1.289,0.1
			l-0.242-0.962l1.234-0.312l1.492-0.377l2.688,10.65l1.288-0.099l0.241,0.954l-2.53,0.639L109.91,167.086z M105.179,165.291
			c0.207,0.823,0.543,1.441,1.008,1.856s1.05,0.532,1.758,0.354c0.444-0.112,0.792-0.308,1.044-0.586s0.431-0.627,0.534-1.045
			l-0.96-3.803c-0.278-0.295-0.597-0.505-0.956-0.629c-0.358-0.125-0.753-0.133-1.183-0.024c-0.712,0.18-1.164,0.608-1.355,1.285
			s-0.168,1.487,0.069,2.432L105.179,165.291z"/>
		<path fill="#7E2D3E" d="M118.381,165.514c-1.1,0.422-2.113,0.392-3.044-0.092c-0.93-0.482-1.619-1.308-2.066-2.475l-0.123-0.32
			c-0.432-1.124-0.456-2.187-0.073-3.189c0.382-1.003,1.03-1.681,1.944-2.031c1.061-0.406,1.987-0.394,2.78,0.038
			s1.396,1.183,1.806,2.253l0.345,0.896l-5.121,1.965l-0.008,0.045c0.306,0.753,0.737,1.303,1.294,1.65
			c0.558,0.347,1.169,0.393,1.835,0.137c0.486-0.187,0.887-0.42,1.2-0.699c0.314-0.279,0.559-0.592,0.732-0.938l0.92,0.718
			c-0.178,0.381-0.463,0.754-0.855,1.119S119.032,165.264,118.381,165.514z M115.452,158.537c-0.481,0.185-0.814,0.546-0.999,1.082
			c-0.185,0.537-0.198,1.126-0.041,1.769l0.029,0.031l3.64-1.396l-0.073-0.189c-0.216-0.564-0.548-0.979-0.995-1.242
			S116.046,158.31,115.452,158.537z"/>
		<path fill="#7E2D3E" d="M119.988,156.605l-0.445-0.887l2.366-1.189l0.684,1.029c0.02-0.493,0.132-0.929,0.336-1.306
			c0.204-0.376,0.509-0.666,0.913-0.87c0.107-0.054,0.222-0.101,0.344-0.142s0.219-0.067,0.288-0.08l0.461,1.369l-0.803,0.351
			c-0.363,0.183-0.625,0.421-0.786,0.715c-0.162,0.294-0.232,0.628-0.213,1.003l2.179,4.335l1.236-0.377l0.441,0.88l-3.65,1.835
			l-0.442-0.879l1.04-0.768l-2.712-5.396L119.988,156.605z"/>
		<path fill="#7E2D3E" d="M138.523,143.889l-0.908,0.728l-1.241-1.087c-0.307-0.008-0.653,0.06-1.04,0.202
			c-0.386,0.143-0.78,0.375-1.183,0.697c-0.639,0.511-1.02,1.039-1.145,1.582c-0.125,0.544-0.014,1.033,0.335,1.469
			c0.31,0.386,0.741,0.569,1.296,0.549c0.554-0.021,1.298-0.244,2.23-0.671c1.12-0.518,2.104-0.745,2.951-0.683
			c0.848,0.062,1.538,0.427,2.072,1.093c0.573,0.716,0.742,1.524,0.507,2.427c-0.234,0.902-0.823,1.731-1.767,2.486
			c-0.683,0.547-1.379,0.921-2.089,1.123c-0.709,0.201-1.376,0.255-1.999,0.159l-1.323-1.652l0.902-0.723l1.252,1.089
			c0.385,0.006,0.787-0.06,1.206-0.194c0.418-0.136,0.852-0.383,1.299-0.74c0.605-0.485,0.981-0.997,1.128-1.535
			c0.146-0.537,0.044-1.025-0.308-1.465c-0.326-0.406-0.751-0.625-1.275-0.655s-1.248,0.171-2.17,0.603
			c-1.118,0.528-2.116,0.787-2.993,0.775s-1.579-0.347-2.106-1.005c-0.557-0.695-0.726-1.51-0.505-2.443
			c0.22-0.934,0.801-1.777,1.744-2.533c0.622-0.498,1.273-0.845,1.954-1.04c0.682-0.195,1.299-0.265,1.852-0.207L138.523,143.889z"
			/>
		<path fill="#7E2D3E" d="M144.612,147.896l0.725-1.069l-7.046-6.773l-1.04,0.767l-0.715-0.688l1.948-2.028l3.504,3.368
			c-0.091-0.492-0.071-0.968,0.06-1.427c0.132-0.459,0.375-0.875,0.732-1.247c0.629-0.653,1.311-0.973,2.048-0.957
			c0.737,0.015,1.511,0.412,2.322,1.191l2.951,2.837l1.04-0.767l0.71,0.683l-2.832,2.945l-0.709-0.682l0.725-1.07l-2.963-2.848
			c-0.503-0.483-0.979-0.732-1.427-0.748c-0.447-0.015-0.877,0.191-1.288,0.619c-0.293,0.305-0.486,0.651-0.582,1.04
			s-0.097,0.782-0.005,1.182l3.633,3.492l1.041-0.766l0.709,0.682l-2.831,2.945L144.612,147.896z"/>
		<path fill="#7E2D3E" d="M146.329,131.544l-0.949,1.211l-1.235-0.969l0.949-1.211L146.329,131.544z M152.175,139.701l0.613-1.138
			l-4.752-3.726l-0.958,0.867l-0.781-0.612l1.735-2.214l5.706,4.474l0.958-0.867l0.774,0.607l-2.521,3.216L152.175,139.701z"/>
		<path fill="#7E2D3E" d="M158.44,136.985l0.5-1.191l-7.824-4.991l-0.869,0.956l-0.837-0.534l1.396-2.187l0.944,0.437
			c-0.173-0.444-0.237-0.892-0.191-1.342c0.046-0.449,0.212-0.897,0.497-1.346c0.563-0.883,1.352-1.345,2.364-1.388
			s2.094,0.303,3.244,1.036l0.139,0.089c1.027,0.655,1.699,1.43,2.016,2.323s0.198,1.773-0.354,2.639
			c-0.28,0.438-0.6,0.777-0.958,1.015c-0.358,0.238-0.757,0.381-1.195,0.429l2.457,1.567l0.869-0.956l0.837,0.533l-2.198,3.445
			L158.44,136.985z M156.832,127.74c-0.813-0.519-1.578-0.785-2.298-0.799c-0.72-0.015-1.278,0.29-1.677,0.913
			c-0.235,0.369-0.354,0.738-0.354,1.108s0.091,0.729,0.277,1.076l3.471,2.214c0.398,0.025,0.761-0.042,1.088-0.201
			c0.326-0.158,0.612-0.429,0.855-0.812c0.393-0.614,0.465-1.223,0.219-1.824c-0.246-0.603-0.727-1.131-1.442-1.588L156.832,127.74z
			"/>
		<path fill="#7E2D3E" d="M159.751,118.312l-0.504,1.04l-1.023-0.219c-0.241,0.092-0.472,0.242-0.691,0.45
			c-0.22,0.209-0.408,0.476-0.565,0.799c-0.238,0.492-0.309,0.909-0.209,1.253s0.302,0.59,0.606,0.737
			c0.3,0.146,0.588,0.155,0.863,0.028c0.276-0.127,0.639-0.48,1.088-1.062c0.673-0.86,1.3-1.439,1.881-1.736
			s1.169-0.301,1.764-0.013c0.675,0.328,1.089,0.865,1.241,1.613c0.151,0.749,0.015,1.563-0.413,2.444
			c-0.279,0.576-0.598,1.062-0.954,1.456s-0.749,0.711-1.177,0.949l-1.739-0.836l0.505-1.04l1.145,0.234
			c0.223-0.089,0.434-0.254,0.632-0.497c0.199-0.242,0.367-0.506,0.506-0.792c0.239-0.492,0.326-0.926,0.263-1.301
			c-0.063-0.376-0.258-0.642-0.581-0.799c-0.305-0.147-0.611-0.153-0.921-0.017s-0.693,0.492-1.152,1.068
			c-0.649,0.826-1.261,1.389-1.835,1.689c-0.574,0.3-1.156,0.307-1.747,0.021c-0.618-0.3-1.018-0.819-1.198-1.558
			c-0.18-0.739-0.065-1.53,0.344-2.373c0.28-0.577,0.606-1.059,0.979-1.444c0.373-0.387,0.767-0.668,1.182-0.843L159.751,118.312z"
			/>
	</g>
</g>
<g id="Layer_4">
	<g>
		<circle fill="none" cx="88" cy="88.999" r="84"/>
		<path fill="#7E2D3E" d="M159.395,44.486l-0.806,0.566l-0.911-0.917l-7.332,5.151l0.553,1.168l-0.811,0.57l-5.021-7.146
			l2.237-1.572l0.759,1.08l-1.174,0.979l2.572,3.662l3.012-2.114l-2.502-3.561l0.99-0.697l2.502,3.561l3.33-2.339l-2.627-3.74
			l-1.318,0.774l-0.754-1.075l2.23-1.566L159.395,44.486z"/>
		<path fill="#7E2D3E" d="M149.1,31.327c-0.138,0.188-0.266,0.354-0.383,0.495c-0.118,0.143-0.241,0.277-0.369,0.407
			c0.48-0.035,0.965,0.028,1.45,0.189c0.485,0.16,0.899,0.428,1.237,0.803c0.591,0.653,0.881,1.294,0.869,1.922
			c-0.011,0.628-0.307,1.204-0.887,1.728c-0.594,0.539-1.27,0.713-2.027,0.524c-0.758-0.189-1.516-0.703-2.273-1.542l-1.064-1.176
			l-0.73,0.66c-0.366,0.332-0.553,0.711-0.557,1.137c-0.005,0.426,0.18,0.845,0.554,1.258c0.259,0.286,0.523,0.506,0.794,0.657
			s0.531,0.237,0.781,0.258l0.77-0.476l0.797,0.88l-1.217,1.102c-0.486-0.081-0.98-0.261-1.485-0.542
			c-0.504-0.282-0.971-0.66-1.401-1.135c-0.643-0.711-0.98-1.451-1.016-2.22c-0.036-0.769,0.284-1.459,0.96-2.07l3.019-2.73
			c0.082-0.073,0.16-0.146,0.235-0.218c0.075-0.072,0.148-0.146,0.218-0.225l-0.355-0.521l0.73-0.66L149.1,31.327z M149.928,33.918
			c-0.343-0.378-0.746-0.642-1.211-0.79s-0.885-0.176-1.262-0.08l-1.031,0.934l1.1,1.217c0.423,0.467,0.865,0.738,1.328,0.815
			s0.849-0.024,1.158-0.304c0.273-0.249,0.406-0.523,0.398-0.824C150.398,34.585,150.238,34.262,149.928,33.918z"/>
		<path fill="#7E2D3E" d="M137.558,28.421l0.865,0.767l-0.487,0.927c0.023,0.256,0.105,0.519,0.248,0.787
			c0.141,0.269,0.346,0.522,0.614,0.76c0.409,0.362,0.793,0.544,1.15,0.541c0.358-0.004,0.649-0.133,0.874-0.386
			c0.221-0.249,0.308-0.523,0.26-0.823c-0.047-0.299-0.289-0.744-0.727-1.334c-0.647-0.88-1.035-1.64-1.164-2.28
			c-0.128-0.64,0.027-1.207,0.466-1.701c0.497-0.562,1.127-0.814,1.889-0.759s1.509,0.409,2.241,1.059
			c0.479,0.426,0.86,0.863,1.145,1.312c0.283,0.45,0.481,0.914,0.595,1.39l-1.274,1.449l-0.865-0.768l0.535-1.038
			c-0.025-0.239-0.127-0.486-0.308-0.743c-0.179-0.257-0.388-0.49-0.626-0.701c-0.408-0.363-0.803-0.564-1.182-0.604
			s-0.688,0.074-0.926,0.343c-0.225,0.253-0.313,0.548-0.266,0.882c0.049,0.335,0.287,0.802,0.719,1.398
			c0.618,0.849,0.995,1.59,1.129,2.225c0.134,0.634-0.018,1.195-0.453,1.687c-0.455,0.515-1.063,0.759-1.823,0.732
			s-1.49-0.351-2.192-0.973c-0.479-0.425-0.854-0.869-1.125-1.333c-0.271-0.463-0.436-0.918-0.492-1.364L137.558,28.421z"/>
		<path fill="#7E2D3E" d="M128.629,23.984l0.686,0.342l7.61-5.207c0.502-0.342,1.038-0.568,1.608-0.683
			c0.572-0.113,1.134,0.025,1.688,0.415c0.098,0.068,0.217,0.171,0.357,0.305c0.141,0.136,0.247,0.243,0.316,0.324l-0.825,0.899
			c0.022,0.022-0.05-0.035-0.218-0.173c-0.167-0.137-0.275-0.223-0.321-0.256c-0.269-0.188-0.567-0.225-0.897-0.11
			c-0.328,0.115-0.662,0.28-0.998,0.495l-0.805,0.504l-1.854,7.469l0.561,0.547l-0.572,0.812l-2.79-1.968l0.571-0.812l0.869,0.423
			l1.211-4.252l0.391-1.044l-0.038-0.026l-4.462,3.278l0.695,0.682l-0.572,0.811l-2.783-1.964L128.629,23.984z"/>
		<path fill="#7E2D3E" d="M122.565,12.396c-0.058,0.228-0.112,0.429-0.168,0.604c-0.056,0.176-0.117,0.349-0.187,0.518
			c0.432-0.216,0.902-0.341,1.414-0.376c0.511-0.036,0.994,0.056,1.449,0.273c0.795,0.379,1.306,0.862,1.533,1.447
			c0.229,0.585,0.174,1.23-0.163,1.936c-0.346,0.724-0.905,1.141-1.678,1.254c-0.772,0.112-1.669-0.075-2.688-0.563l-1.431-0.684
			l-0.425,0.887c-0.214,0.447-0.242,0.868-0.084,1.264c0.157,0.396,0.486,0.714,0.99,0.954c0.348,0.166,0.676,0.269,0.983,0.307
			c0.308,0.037,0.581,0.018,0.819-0.059l0.533-0.733l1.071,0.513l-0.708,1.479c-0.48,0.111-1.007,0.133-1.58,0.063
			s-1.148-0.242-1.727-0.519c-0.865-0.413-1.459-0.969-1.783-1.667s-0.291-1.458,0.104-2.279l1.755-3.673
			c0.048-0.098,0.093-0.195,0.135-0.29c0.042-0.096,0.082-0.192,0.117-0.291l-0.526-0.347l0.424-0.888L122.565,12.396z
			 M124.314,14.479c-0.461-0.221-0.934-0.311-1.421-0.271c-0.485,0.038-0.886,0.174-1.198,0.404l-0.6,1.256l1.48,0.707
			c0.568,0.272,1.08,0.355,1.538,0.251c0.457-0.104,0.775-0.346,0.955-0.721c0.159-0.334,0.179-0.639,0.056-0.913
			C125.003,14.917,124.732,14.68,124.314,14.479z"/>
		<path fill="#7E2D3E" d="M118.646,11.681l-1.276-0.194l-1.905,5.731l1.14,0.608l-0.313,0.941l-2.513-0.835l0.293-1.228
			c-0.407,0.336-0.853,0.555-1.333,0.656c-0.481,0.1-0.979,0.065-1.493-0.106c-0.864-0.287-1.45-0.763-1.757-1.428
			c-0.305-0.663-0.283-1.524,0.068-2.582l1.305-3.922l-1.141-0.609l0.311-0.934l3.878,1.288l-0.311,0.935l-1.277-0.194l-1.294,3.893
			c-0.234,0.706-0.262,1.255-0.081,1.645c0.181,0.389,0.558,0.679,1.131,0.869c0.42,0.14,0.825,0.162,1.217,0.066
			c0.392-0.095,0.741-0.285,1.051-0.572l1.564-4.708l-1.139-0.609l0.31-0.934l3.878,1.289L118.646,11.681z"/>
		<path fill="#7E2D3E" d="M102.31,7.219c0.345-0.326,0.731-0.548,1.159-0.666c0.43-0.118,0.902-0.128,1.418-0.027
			c1.013,0.195,1.733,0.715,2.161,1.561c0.429,0.844,0.526,1.863,0.294,3.06l-0.031,0.161c-0.258,1.336-0.751,2.356-1.48,3.063
			c-0.729,0.708-1.604,0.964-2.626,0.766c-0.491-0.095-0.907-0.271-1.247-0.525c-0.342-0.254-0.611-0.577-0.811-0.972l-0.655,3.382
			l1.209,0.458l-0.188,0.974l-1.25-0.242l-1.512-0.292l2.088-10.785l-1.209-0.456l0.188-0.967l2.563,0.497L102.31,7.219z
			 M105.832,10.854c0.161-0.833,0.119-1.536-0.125-2.109c-0.244-0.572-0.725-0.928-1.441-1.066
			c-0.449-0.087-0.848-0.059-1.194,0.087s-0.655,0.386-0.927,0.72l-0.746,3.851c0.127,0.385,0.327,0.711,0.6,0.976
			c0.271,0.265,0.625,0.438,1.061,0.523c0.721,0.14,1.312-0.057,1.773-0.588c0.461-0.531,0.783-1.275,0.969-2.231L105.832,10.854z"
			/>
		<path fill="#7E2D3E" d="M84.612,12.806l1.086,0.021l0.259,1.615c0.244,0.25,0.548,0.455,0.909,0.618
			c0.362,0.163,0.795,0.25,1.301,0.26c1.183,0.021,2.099-0.389,2.751-1.233c0.65-0.845,0.988-1.926,1.014-3.244l0.004-0.179
			c0.024-1.317-0.266-2.413-0.872-3.287c-0.605-0.874-1.461-1.32-2.564-1.341c-0.516-0.011-0.986,0.062-1.411,0.215
			c-0.425,0.154-0.754,0.346-0.988,0.575l-0.32,1.604l-1.086-0.021l0.039-2.023c0.336-0.415,0.835-0.781,1.498-1.1
			c0.662-0.319,1.425-0.471,2.29-0.453C90,4.859,91.203,5.429,92.131,6.541c0.927,1.112,1.375,2.495,1.344,4.151l-0.004,0.164
			c-0.031,1.666-0.523,3.036-1.477,4.109c-0.952,1.073-2.184,1.596-3.694,1.566c-0.865-0.016-1.622-0.198-2.271-0.547
			c-0.649-0.348-1.135-0.733-1.455-1.156L84.612,12.806z"/>
		<path fill="#7E2D3E" d="M82.727,9.386c0.14,1.241-0.082,2.303-0.663,3.184c-0.583,0.88-1.45,1.386-2.605,1.517
			c-1.159,0.13-2.122-0.167-2.888-0.894c-0.766-0.727-1.219-1.713-1.359-2.96l-0.019-0.171c-0.142-1.253,0.08-2.315,0.662-3.188
			C76.438,6,77.306,5.499,78.46,5.369c1.165-0.132,2.128,0.165,2.891,0.889c0.764,0.724,1.215,1.709,1.355,2.957L82.727,9.386z
			 M81.178,9.387c-0.1-0.891-0.371-1.604-0.812-2.142s-1.031-0.765-1.772-0.681c-0.724,0.082-1.242,0.434-1.554,1.056
			c-0.313,0.622-0.419,1.379-0.319,2.269l0.019,0.171c0.099,0.88,0.371,1.591,0.814,2.133c0.444,0.543,1.033,0.772,1.769,0.689
			c0.735-0.083,1.255-0.438,1.563-1.063c0.307-0.627,0.41-1.381,0.311-2.261L81.178,9.387z"/>
		<path fill="#7E2D3E" d="M72.892,7.219l-1.186,0.514l1.425,5.868l1.29-0.087l0.233,0.964l-2.574,0.625l-0.403-1.196
			c-0.167,0.502-0.428,0.923-0.783,1.263c-0.354,0.341-0.793,0.575-1.32,0.702c-0.885,0.216-1.634,0.123-2.246-0.278
			c-0.612-0.4-1.05-1.143-1.313-2.226L65.04,9.351l-1.288,0.089l-0.233-0.957l3.971-0.965l0.233,0.957l-1.186,0.514l0.968,3.985
			c0.175,0.724,0.443,1.203,0.802,1.438c0.36,0.234,0.833,0.279,1.421,0.138c0.43-0.104,0.786-0.301,1.067-0.589
			c0.281-0.289,0.477-0.636,0.587-1.044l-1.17-4.82l-1.29,0.088l-0.231-0.956l3.97-0.964L72.892,7.219z"/>
		<path fill="#7E2D3E" d="M61.571,17.139l0.894-0.509l-3.343-3.876l-0.348-0.52l-0.044,0.017l0.078,0.622l0.137,5.099l1.012-0.219
			l0.354,0.927l-3.051,1.163l-0.354-0.927l0.607-0.357l0.035-7.872l1.088-0.414l5.294,5.841l0.691-0.139l0.354,0.928l-3.051,1.163
			L61.571,17.139z"/>
		<path fill="#7E2D3E" d="M49.153,14.317c1.045-0.541,2.058-0.623,3.035-0.246c0.978,0.376,1.753,1.12,2.327,2.229l0.159,0.306
			c0.553,1.068,0.694,2.123,0.426,3.162c-0.269,1.038-0.838,1.782-1.708,2.233c-1.008,0.521-1.93,0.612-2.767,0.27
			c-0.836-0.341-1.518-1.021-2.045-2.037l-0.44-0.854l4.87-2.52l0.003-0.046c-0.387-0.714-0.877-1.213-1.469-1.496
			s-1.205-0.26-1.839,0.067c-0.463,0.239-0.835,0.515-1.115,0.828c-0.281,0.313-0.489,0.649-0.624,1.013l-0.994-0.611
			c0.135-0.397,0.377-0.801,0.727-1.207S48.533,14.638,49.153,14.317z M52.836,20.927c0.458-0.237,0.749-0.633,0.874-1.187
			c0.123-0.555,0.071-1.142-0.155-1.763l-0.032-0.028l-3.463,1.793l0.094,0.18c0.277,0.537,0.653,0.911,1.126,1.123
			C51.754,21.258,52.272,21.218,52.836,20.927z"/>
		<path fill="#7E2D3E" d="M45.014,17.811l-0.926,0.9l3.412,4.982l1.174-0.539l0.561,0.818l-2.186,1.496l-0.801-0.976
			c0.021,0.528-0.073,1.015-0.284,1.459s-0.539,0.819-0.986,1.125c-0.751,0.516-1.485,0.694-2.199,0.536s-1.386-0.697-2.016-1.617
			l-2.335-3.41l-1.175,0.539l-0.557-0.812l3.372-2.309l0.557,0.812l-0.928,0.9l2.317,3.384c0.421,0.615,0.841,0.968,1.261,1.06
			c0.42,0.091,0.878-0.034,1.377-0.375c0.365-0.25,0.628-0.561,0.788-0.929c0.161-0.369,0.222-0.763,0.18-1.184l-2.803-4.092
			l-1.174,0.538l-0.557-0.812l3.371-2.31L45.014,17.811z"/>
		<path fill="#7E2D3E" d="M35.961,24.285l-0.832,0.989l3.896,4.615l1.114-0.654l0.64,0.758l-2.148,1.814l-4.677-5.54l-1.113,0.654
			l-0.636-0.753l3.122-2.635L35.961,24.285z M40.025,33.461l1.176-0.993l1.014,1.2l-1.177,0.993L40.025,33.461z"/>
		<path fill="#7E2D3E" d="M28.002,29.974c0.828-0.836,1.765-1.227,2.812-1.169c1.046,0.058,2.014,0.526,2.901,1.405l0.245,0.241
			c0.854,0.847,1.315,1.806,1.379,2.877c0.064,1.071-0.248,1.955-0.937,2.651c-0.799,0.807-1.648,1.177-2.55,1.109
			c-0.9-0.066-1.758-0.504-2.572-1.31l-0.683-0.677l3.858-3.897l-0.012-0.044c-0.589-0.561-1.208-0.885-1.858-0.971
			c-0.65-0.087-1.227,0.122-1.729,0.63c-0.366,0.37-0.635,0.747-0.806,1.131c-0.172,0.384-0.267,0.77-0.282,1.156l-1.134-0.275
			c0.005-0.42,0.112-0.878,0.319-1.373C27.162,30.965,27.512,30.47,28.002,29.974z M33.542,35.128
			c0.363-0.367,0.518-0.833,0.466-1.398c-0.054-0.564-0.283-1.107-0.691-1.629l-0.039-0.016l-2.742,2.771l0.145,0.143
			c0.43,0.425,0.901,0.666,1.418,0.723C32.613,35.776,33.095,35.579,33.542,35.128z"/>
		<path fill="#7E2D3E" d="M25.135,34.579l-0.605,1.142l4.778,3.692l0.951-0.873l0.785,0.606l-1.619,2.095l-1.062-0.683
			c0.182,0.497,0.241,0.989,0.177,1.477c-0.063,0.487-0.261,0.944-0.592,1.373c-0.557,0.722-1.201,1.116-1.929,1.186
			s-1.533-0.236-2.415-0.919l-3.27-2.526l-0.952,0.873l-0.779-0.602l2.499-3.233l0.778,0.603l-0.605,1.142l3.245,2.508
			c0.59,0.455,1.098,0.662,1.525,0.62s0.825-0.302,1.195-0.779c0.271-0.351,0.426-0.727,0.466-1.126
			c0.039-0.4-0.025-0.794-0.194-1.182l-3.925-3.033l-0.952,0.873l-0.778-0.602l2.499-3.232L25.135,34.579z"/>
		<path fill="#7E2D3E" d="M25.167,50.822l-1.734-1.072l-0.842,1.362l-0.97-0.599l0.842-1.363l-4.368-2.696
			c-0.336-0.208-0.617-0.285-0.84-0.23c-0.225,0.055-0.407,0.197-0.55,0.428c-0.071,0.116-0.141,0.252-0.21,0.407
			c-0.068,0.156-0.122,0.29-0.161,0.401l-1.008-0.375c-0.003-0.173,0.044-0.395,0.141-0.665c0.098-0.271,0.22-0.526,0.367-0.766
			c0.328-0.532,0.751-0.855,1.266-0.972c0.516-0.117,1.117,0.037,1.805,0.462l4.366,2.696l0.702-1.137l0.971,0.6l-0.702,1.137
			l1.735,1.072L25.167,50.822z"/>
	</g>
</g>
<g id="Layer_5">
	<g>
		<rect x="32.667" y="33.334" fill="none" width="106.5" height="37"/>
		<path fill="#FFFFFF" d="M113.877,60.117c0.313-0.327,0.773-0.636,1.385-0.926c0.609-0.291,1.403-0.436,2.38-0.436
			c1.426,0,2.589,0.5,3.49,1.501c0.9,1.001,1.351,2.3,1.351,3.896v0.176c0,1.606-0.445,2.908-1.336,3.904s-2.076,1.494-3.557,1.494
			c-0.791,0-1.484-0.124-2.083-0.37c-0.599-0.247-1.103-0.573-1.513-0.978v-1.934h1.011l0.352,1.472
			c0.239,0.195,0.528,0.356,0.868,0.483s0.746,0.19,1.219,0.19c1.152,0,2.04-0.395,2.663-1.183c0.622-0.789,0.934-1.811,0.934-3.065
			v-0.19c0-1.274-0.302-2.305-0.904-3.091s-1.435-1.179-2.494-1.179c-0.581,0-1.058,0.061-1.429,0.183s-0.668,0.256-0.893,0.403
			v2.336l1.75,0.073v1.062h-3.193V60.117z"/>
		<path fill="#FFFFFF" d="M108.457,58.755c1.104,0,1.98,0.367,2.633,1.102s0.979,1.688,0.979,2.86v0.322
			c0,1.128-0.336,2.066-1.008,2.816c-0.671,0.749-1.466,1.124-2.384,1.124c-1.064,0-1.872-0.322-2.421-0.967
			s-0.824-1.504-0.824-2.578v-0.901h5.143l0.021-0.037c-0.015-0.762-0.207-1.388-0.578-1.879c-0.371-0.49-0.892-0.736-1.561-0.736
			c-0.488,0-0.916,0.07-1.285,0.208c-0.369,0.14-0.688,0.331-0.956,0.575l-0.563-0.938c0.283-0.273,0.658-0.504,1.123-0.692
			C107.242,58.849,107.803,58.755,108.457,58.755z M108.677,65.845c0.483,0,0.896-0.204,1.237-0.612s0.553-0.919,0.631-1.534
			l-0.016-0.037h-3.654v0.19c0,0.566,0.151,1.04,0.454,1.421S108.081,65.845,108.677,65.845z"/>
		<path fill="#FFFFFF" d="M101.492,68.745v-1.912H99.99v-1.069h1.502v-4.812c0-0.371-0.077-0.632-0.231-0.784
			c-0.153-0.151-0.357-0.227-0.611-0.227c-0.127,0-0.27,0.011-0.429,0.033c-0.158,0.022-0.291,0.045-0.398,0.07l-0.198-0.989
			c0.137-0.088,0.337-0.16,0.601-0.216s0.527-0.084,0.791-0.084c0.586,0,1.053,0.177,1.398,0.531
			c0.348,0.354,0.521,0.91,0.521,1.667v4.812h1.253v1.069h-1.253v1.912H101.492z"/>
		<path fill="#FFFFFF" d="M89.619,58.909c0.044,0.215,0.078,0.408,0.103,0.579s0.042,0.342,0.052,0.513
			c0.277-0.356,0.625-0.653,1.043-0.89c0.418-0.236,0.863-0.355,1.337-0.355c0.825,0,1.452,0.202,1.882,0.604
			c0.43,0.403,0.645,0.971,0.645,1.703c0,0.752-0.303,1.332-0.912,1.739c-0.607,0.408-1.441,0.612-2.5,0.612H89.78v0.923
			c0,0.464,0.146,0.832,0.439,1.102c0.293,0.271,0.7,0.407,1.224,0.407c0.361,0,0.68-0.046,0.955-0.139
			c0.276-0.093,0.5-0.22,0.67-0.381l0.154-0.835h1.113v1.538c-0.361,0.288-0.799,0.519-1.311,0.692
			c-0.514,0.173-1.07,0.26-1.67,0.26c-0.898,0-1.627-0.229-2.184-0.688c-0.556-0.459-0.834-1.116-0.834-1.97v-3.816
			c0-0.103-0.001-0.203-0.004-0.3c-0.002-0.098-0.008-0.195-0.018-0.293l-0.586-0.081v-0.923H89.619z M91.941,59.963
			c-0.479,0-0.916,0.115-1.312,0.344s-0.679,0.505-0.85,0.828v1.304h1.538c0.591,0,1.059-0.137,1.402-0.41s0.517-0.605,0.517-0.996
			c0-0.347-0.107-0.611-0.322-0.795C92.7,60.055,92.375,59.963,91.941,59.963z"/>
		<path fill="#FFFFFF" d="M74.319,69.573v-2.358h1.23l0.109,1.223h2.365v-8.401l-1.193-0.205v-0.923h3.83v0.923l-1.193,0.205v8.401
			h2.373l0.103-1.223h1.237v2.358H74.319z"/>
		<path fill="#FFFFFF" d="M70.504,58.755c1.104,0,1.98,0.367,2.633,1.102c0.651,0.735,0.978,1.688,0.978,2.86v0.322
			c0,1.128-0.336,2.066-1.007,2.816c-0.672,0.749-1.466,1.124-2.385,1.124c-1.063,0-1.871-0.322-2.42-0.967
			c-0.55-0.645-0.824-1.504-0.824-2.578v-0.901h5.142l0.022-0.037c-0.016-0.762-0.208-1.388-0.579-1.879
			c-0.371-0.49-0.891-0.736-1.56-0.736c-0.488,0-0.917,0.07-1.286,0.208c-0.368,0.14-0.687,0.331-0.956,0.575l-0.563-0.938
			c0.283-0.273,0.658-0.504,1.124-0.692C69.289,58.849,69.85,58.755,70.504,58.755z M70.723,65.845c0.484,0,0.896-0.204,1.238-0.612
			s0.552-0.919,0.63-1.534l-0.015-0.037h-3.654v0.19c0,0.566,0.151,1.04,0.453,1.421C69.679,65.654,70.128,65.845,70.723,65.845z"/>
		<path fill="#FFFFFF" d="M66.255,59.832L65.405,60l-2.337,2.915l2.264,2.82l0.85,0.168v0.93h-3.105v-0.93l0.718-0.088l-1.479-1.904
			l-1.486,1.912l0.71,0.081v0.93H58.41v-0.93l0.85-0.168l2.264-2.82L59.194,60l-0.856-0.168v-0.923h3.105v0.923l-0.703,0.081
			l1.553,1.992l1.553-1.992l-0.711-0.081v-0.923h3.12V59.832z"/>
		<path fill="#FFFFFF" d="M54.807,68.745v-1.912h-1.501v-1.069h1.501v-4.812c0-0.371-0.076-0.632-0.23-0.784
			c-0.153-0.151-0.357-0.227-0.611-0.227c-0.127,0-0.27,0.011-0.429,0.033c-0.158,0.022-0.291,0.045-0.399,0.07l-0.197-0.989
			c0.137-0.088,0.337-0.16,0.601-0.216s0.527-0.084,0.791-0.084c0.586,0,1.053,0.177,1.399,0.531s0.52,0.91,0.52,1.667v4.812h1.252
			v1.069H56.25v1.912H54.807z"/>
		<path fill="#FFFFFF" d="M49.996,58.909h1.443v1.494h-1.443V58.909z M49.996,62.41h1.443v7.163h-1.443V62.41z"/>
	</g>
	<polygon fill="#4EB365" points="128.546,41.634 137.255,37.96 136.082,47.339 134.909,56.717 127.373,51.012 119.838,45.307 	"/>
</g>
<g id="Layer_6">
	<g>
	</g>
	<g>
	</g>
	<g>
	</g>
	<g>
	</g>
	<g>
	</g>
	<g>
	</g>
</g>
</svg>
