<?xml version="1.0" encoding="utf-8"?>
<!-- Generator: Adobe Illustrator 16.0.0, SVG Export Plug-In . SVG Version: 6.00 Build 0)  -->
<!DOCTYPE svg PUBLIC "-//W3C//DTD SVG 1.1//EN" "http://www.w3.org/Graphics/SVG/1.1/DTD/svg11.dtd">
<svg version="1.1" xmlns="http://www.w3.org/2000/svg" xmlns:xlink="http://www.w3.org/1999/xlink" x="0px" y="0px" width="176px"
	 height="176px" viewBox="0 0 176 176" enable-background="new 0 0 176 176" xml:space="preserve">
<g id="Layer_2">
	<circle fill="#FFFFFF" stroke="#7E2D3E" stroke-miterlimit="10" cx="88" cy="88" r="86"/>
</g>
<g id="Layer_1">
	<g>
		<rect x="3.333" y="88" fill="none" width="167.667" height="64"/>
		<path fill="#7E2D3E" d="M72.108,89.828v6.82h-3.938l-0.211-2.865h-4.711v18.035l2.742,0.527v3.076H55.374v-3.076l2.742-0.527
			V93.783h-4.693l-0.211,2.865h-3.92v-6.82H72.108z"/>
		<path fill="#7E2D3E" d="M81.767,115.791c-2.742,0-4.934-0.879-6.574-2.637s-2.461-3.99-2.461-6.697v-0.703
			c0-2.824,0.776-5.15,2.329-6.979s3.636-2.736,6.249-2.725c2.566,0,4.559,0.773,5.977,2.32s2.127,3.639,2.127,6.275v2.795H78.058
			l-0.035,0.105c0.094,1.254,0.513,2.285,1.257,3.094s1.755,1.213,3.032,1.213c1.137,0,2.08-0.114,2.83-0.343
			s1.57-0.589,2.461-1.081l1.389,3.164c-0.785,0.621-1.802,1.143-3.05,1.564S83.302,115.791,81.767,115.791z M81.31,100.006
			c-0.949,0-1.699,0.363-2.25,1.09s-0.891,1.682-1.02,2.865l0.053,0.088h6.293v-0.457c0-1.09-0.255-1.96-0.765-2.61
			S82.341,100.006,81.31,100.006z"/>
		<path fill="#7E2D3E" d="M91.617,112.346l1.776-0.281l5.168-6.258l-4.992-6.012l-1.776-0.299v-3.094h8.562v2.971l-1.74,0.211
			l2.883,3.656l2.83-3.656l-1.775-0.211v-2.971h8.596v3.094l-1.723,0.299l-4.887,6.012l5.15,6.258l1.793,0.281v3.076h-8.701v-2.953
			l1.74-0.211l-2.953-3.832l-3.006,3.85l1.529,0.193v2.953h-8.474V112.346z"/>
		<path fill="#7E2D3E" d="M120.998,91.744v4.658h3.34v3.604h-3.34v9.686c0,0.738,0.152,1.266,0.457,1.582s0.715,0.475,1.23,0.475
			c0.352,0,0.659-0.015,0.923-0.044s0.56-0.079,0.888-0.149l0.439,3.709c-0.574,0.176-1.143,0.308-1.705,0.396
			s-1.172,0.132-1.828,0.132c-1.77,0-3.132-0.486-4.087-1.459s-1.433-2.514-1.433-4.623v-9.703h-2.795v-3.604h2.795v-4.658H120.998z
			"/>
		<path fill="#7E2D3E" d="M86.143,123.49l-0.105-0.018l-6.855,18.949h-3.445l-6.82-18.879l-0.105,0.018l0.492,11.232v4.025
			l2.742,0.527v3.076h-10.6v-3.076l2.725-0.527v-18.369l-2.725-0.527v-3.094h2.725h6.697l6.521,18.861h0.105l6.574-18.861h9.458
			v3.094l-2.743,0.527v18.369l2.743,0.527v3.076h-10.6v-3.076l2.725-0.527v-4.025L86.143,123.49z"/>
		<path fill="#7E2D3E" d="M104.907,142.791c-2.742,0-4.934-0.879-6.574-2.637s-2.461-3.99-2.461-6.697v-0.703
			c0-2.824,0.776-5.15,2.329-6.979s3.636-2.736,6.249-2.725c2.566,0,4.559,0.773,5.977,2.32s2.127,3.639,2.127,6.275v2.795h-11.355
			l-0.035,0.105c0.094,1.254,0.513,2.285,1.257,3.094s1.755,1.213,3.032,1.213c1.137,0,2.08-0.114,2.83-0.343
			s1.57-0.589,2.461-1.081l1.389,3.164c-0.785,0.621-1.802,1.143-3.05,1.564S106.442,142.791,104.907,142.791z M104.45,127.006
			c-0.949,0-1.699,0.363-2.25,1.09s-0.891,1.682-1.02,2.865l0.053,0.088h6.293v-0.457c0-1.09-0.255-1.96-0.765-2.61
			S105.481,127.006,104.45,127.006z"/>
	</g>
</g>
<g id="Layer_3">
	<g>
		<circle fill="none" cx="88" cy="87" r="84"/>
		<path fill="#7E2D3E" d="M22.673,121.171l-0.742-0.905l-4.657,4.439l-1.118,0.903l0.017,0.044l1.387-0.463l7.471-1.972l0.69,1.172
			l-5.341,5.586l-1.1,1.011l0.024,0.04l1.374-0.546l6.125-1.949l-0.436-1.094l0.854-0.504l1.836,3.116l-0.855,0.504l-0.565-0.728
			l-10.102,3.077l-0.698-1.186l5.656-5.943l0.779-0.694l-0.024-0.041l-0.981,0.352l-7.957,2.04l-0.694-1.178l7.588-7.345
			l-0.363-0.848l0.855-0.503l1.832,3.109L22.673,121.171z"/>
		<path fill="#7E2D3E" d="M21.278,136.622l0.984,0.837l7.499-6.269l-0.649-1.117l0.761-0.637l1.804,2.158l-3.728,3.116
			c0.499-0.037,0.969,0.035,1.412,0.215s0.829,0.468,1.16,0.863c0.582,0.695,0.825,1.409,0.73,2.14
			c-0.095,0.731-0.574,1.457-1.437,2.179l-3.141,2.626l0.649,1.117l-0.755,0.632l-2.621-3.135l0.755-0.632l0.985,0.837l3.152-2.636
			c0.536-0.448,0.835-0.894,0.899-1.337c0.063-0.443-0.095-0.894-0.476-1.349c-0.271-0.323-0.594-0.554-0.97-0.691
			c-0.376-0.137-0.768-0.182-1.175-0.133l-3.866,3.232l0.649,1.117l-0.755,0.632l-2.621-3.135L21.278,136.622z"/>
		<path fill="#7E2D3E" d="M30.622,148.574c-0.858-0.805-1.273-1.731-1.244-2.778c0.029-1.048,0.471-2.027,1.326-2.939l0.235-0.25
			c0.823-0.878,1.769-1.363,2.838-1.457c1.069-0.093,1.961,0.195,2.675,0.865c0.828,0.776,1.221,1.616,1.178,2.519
			s-0.457,1.771-1.24,2.607l-0.657,0.7l-4-3.751l-0.044,0.012c-0.544,0.604-0.851,1.231-0.92,1.884
			c-0.069,0.653,0.156,1.224,0.677,1.712c0.379,0.355,0.764,0.614,1.152,0.775c0.388,0.16,0.776,0.244,1.163,0.25l-0.246,1.141
			c-0.42,0.006-0.88-0.088-1.379-0.281C31.635,149.388,31.13,149.052,30.622,148.574z M35.624,142.898
			c-0.376-0.354-0.846-0.496-1.409-0.428c-0.563,0.067-1.1,0.313-1.61,0.734l-0.015,0.039l2.843,2.667l0.139-0.148
			c0.413-0.44,0.641-0.92,0.684-1.437C36.298,143.809,36.087,143.333,35.624,142.898z"/>
		<path fill="#7E2D3E" d="M35.28,151.3l1.157,0.574l3.564-4.875l-0.899-0.928l0.585-0.801l2.138,1.563l-0.654,1.08
			c0.492-0.195,0.981-0.268,1.47-0.217s0.952,0.235,1.389,0.556c0.735,0.537,1.148,1.17,1.236,1.896
			c0.088,0.727-0.196,1.539-0.854,2.438l-2.439,3.337l0.899,0.928l-0.581,0.795l-3.298-2.411l0.581-0.795l1.157,0.575l2.42-3.312
			c0.439-0.602,0.633-1.115,0.58-1.541s-0.323-0.816-0.811-1.174c-0.357-0.261-0.737-0.406-1.138-0.435
			c-0.402-0.029-0.793,0.046-1.176,0.225l-2.928,4.004l0.899,0.929l-0.581,0.795l-3.298-2.412L35.28,151.3z"/>
		<path fill="#7E2D3E" d="M65.347,158.532l-0.034-0.021l-6.679,7.215l-0.957-0.363l-0.203-9.823l-0.039-0.006l-1.489,4.356
			l-1.171,3.082l1.112,0.656l-0.35,0.921l-3.819-1.452l0.35-0.92l1.268,0.248l3.185-8.376l-1.113-0.657l0.353-0.928l1.19,0.453
			l1.84,0.699l0.104,9.927l0.044,0.017l6.666-7.354l3.038,1.155l-0.353,0.928l-1.268-0.248l-3.185,8.376l1.113,0.656l-0.35,0.921
			l-3.819-1.452l0.35-0.92l1.268,0.248l1.172-3.082L65.347,158.532z"/>
		<path fill="#7E2D3E" d="M76.345,162.774l-0.766-0.041l-4.919,7.799c-0.325,0.513-0.727,0.934-1.206,1.265s-1.05,0.427-1.712,0.288
			c-0.117-0.024-0.268-0.07-0.45-0.138s-0.322-0.125-0.419-0.171l0.401-1.153c-0.03-0.012,0.06,0.012,0.268,0.071
			s0.341,0.096,0.397,0.107c0.321,0.067,0.61-0.018,0.867-0.254c0.257-0.236,0.497-0.52,0.721-0.851l0.538-0.781l-1.262-7.592
			l-0.731-0.28l0.203-0.971l3.342,0.698l-0.203,0.972l-0.965-0.043l0.576,4.383l0.055,1.113l0.046,0.01l2.795-4.779l-0.909-0.35
			l0.203-0.972l3.334,0.697L76.345,162.774z"/>
		<path fill="#7E2D3E" d="M95.225,165.23c0.046,1.656-0.393,3.043-1.313,4.163c-0.92,1.119-2.135,1.699-3.646,1.74
			c-1.468,0.04-2.675-0.474-3.621-1.542s-1.442-2.431-1.487-4.086l-0.004-0.164c-0.045-1.65,0.375-3.037,1.262-4.161
			c0.887-1.123,2.064-1.705,3.532-1.745c1.51-0.042,2.755,0.475,3.735,1.547s1.493,2.434,1.538,4.084L95.225,165.23z
			 M93.682,165.093c-0.036-1.322-0.382-2.393-1.037-3.211s-1.543-1.212-2.662-1.182c-1.073,0.029-1.898,0.472-2.477,1.326
			c-0.579,0.854-0.85,1.94-0.814,3.258l0.005,0.18c0.037,1.333,0.367,2.409,0.991,3.228c0.625,0.819,1.473,1.215,2.545,1.186
			c1.135-0.031,2.004-0.472,2.605-1.322c0.603-0.85,0.885-1.943,0.849-3.282L93.682,165.093z"/>
		<path fill="#7E2D3E" d="M96.424,163.127l-0.142-0.982l2.622-0.378l0.321,1.193c0.176-0.462,0.42-0.839,0.733-1.132
			c0.313-0.292,0.693-0.471,1.142-0.535c0.119-0.018,0.242-0.025,0.372-0.026c0.128,0,0.228,0.006,0.298,0.017l0.003,1.444
			l-0.873,0.078c-0.402,0.058-0.727,0.2-0.973,0.428s-0.419,0.522-0.52,0.884l0.691,4.803l1.291,0.035l0.141,0.974l-4.044,0.583
			l-0.141-0.975l1.229-0.398l-0.86-5.978L96.424,163.127z"/>
		<path fill="#7E2D3E" d="M109.91,167.086c-0.174,0.441-0.43,0.807-0.768,1.097c-0.338,0.289-0.762,0.498-1.271,0.627
			c-1,0.252-1.873,0.087-2.619-0.496c-0.746-0.582-1.268-1.465-1.566-2.646l-0.04-0.158c-0.332-1.318-0.319-2.452,0.04-3.402
			s1.044-1.553,2.054-1.808c0.485-0.122,0.936-0.141,1.353-0.056c0.416,0.086,0.798,0.265,1.146,0.537l-0.843-3.341l-1.289,0.1
			l-0.242-0.962l1.234-0.312l1.492-0.377l2.688,10.65l1.288-0.099l0.241,0.954l-2.53,0.639L109.91,167.086z M105.179,165.291
			c0.207,0.823,0.543,1.441,1.008,1.856s1.05,0.532,1.758,0.354c0.444-0.112,0.792-0.308,1.044-0.586s0.431-0.627,0.534-1.045
			l-0.96-3.803c-0.278-0.295-0.597-0.505-0.956-0.629c-0.358-0.125-0.753-0.133-1.183-0.024c-0.712,0.18-1.164,0.608-1.355,1.285
			s-0.168,1.487,0.069,2.432L105.179,165.291z"/>
		<path fill="#7E2D3E" d="M118.381,165.514c-1.1,0.422-2.113,0.392-3.044-0.092c-0.93-0.482-1.619-1.308-2.066-2.475l-0.123-0.32
			c-0.432-1.124-0.456-2.187-0.073-3.189c0.382-1.003,1.03-1.681,1.944-2.031c1.061-0.406,1.987-0.394,2.78,0.038
			s1.396,1.183,1.806,2.253l0.345,0.896l-5.121,1.965l-0.008,0.045c0.306,0.753,0.737,1.303,1.294,1.65
			c0.558,0.347,1.169,0.393,1.835,0.137c0.486-0.187,0.887-0.42,1.2-0.699c0.314-0.279,0.559-0.592,0.732-0.938l0.92,0.718
			c-0.178,0.381-0.463,0.754-0.855,1.119S119.032,165.264,118.381,165.514z M115.452,158.537c-0.481,0.185-0.814,0.546-0.999,1.082
			c-0.185,0.537-0.198,1.126-0.041,1.769l0.029,0.031l3.64-1.396l-0.073-0.189c-0.216-0.564-0.548-0.979-0.995-1.242
			S116.046,158.31,115.452,158.537z"/>
		<path fill="#7E2D3E" d="M119.988,156.605l-0.445-0.887l2.366-1.189l0.684,1.029c0.02-0.493,0.132-0.929,0.336-1.306
			c0.204-0.376,0.509-0.666,0.913-0.87c0.107-0.054,0.222-0.101,0.344-0.142s0.219-0.067,0.288-0.08l0.461,1.369l-0.803,0.351
			c-0.363,0.183-0.625,0.421-0.786,0.715c-0.162,0.294-0.232,0.628-0.213,1.003l2.179,4.335l1.236-0.377l0.441,0.88l-3.65,1.835
			l-0.442-0.879l1.04-0.768l-2.712-5.396L119.988,156.605z"/>
		<path fill="#7E2D3E" d="M138.523,143.889l-0.908,0.728l-1.241-1.087c-0.307-0.008-0.653,0.06-1.04,0.202
			c-0.386,0.143-0.78,0.375-1.183,0.697c-0.639,0.511-1.02,1.039-1.145,1.582c-0.125,0.544-0.014,1.033,0.335,1.469
			c0.31,0.386,0.741,0.569,1.296,0.549c0.554-0.021,1.298-0.244,2.23-0.671c1.12-0.518,2.104-0.745,2.951-0.683
			c0.848,0.062,1.538,0.427,2.072,1.093c0.573,0.716,0.742,1.524,0.507,2.427c-0.234,0.902-0.823,1.731-1.767,2.486
			c-0.683,0.547-1.379,0.921-2.089,1.123c-0.709,0.201-1.376,0.255-1.999,0.159l-1.323-1.652l0.902-0.723l1.252,1.089
			c0.385,0.006,0.787-0.06,1.206-0.194c0.418-0.136,0.852-0.383,1.299-0.74c0.605-0.485,0.981-0.997,1.128-1.535
			c0.146-0.537,0.044-1.025-0.308-1.465c-0.326-0.406-0.751-0.625-1.275-0.655s-1.248,0.171-2.17,0.603
			c-1.118,0.528-2.116,0.787-2.993,0.775s-1.579-0.347-2.106-1.005c-0.557-0.695-0.726-1.51-0.505-2.443
			c0.22-0.934,0.801-1.777,1.744-2.533c0.622-0.498,1.273-0.845,1.954-1.04c0.682-0.195,1.299-0.265,1.852-0.207L138.523,143.889z"
			/>
		<path fill="#7E2D3E" d="M144.612,147.896l0.725-1.069l-7.046-6.773l-1.04,0.767l-0.715-0.688l1.948-2.028l3.504,3.368
			c-0.091-0.492-0.071-0.968,0.06-1.427c0.132-0.459,0.375-0.875,0.732-1.247c0.629-0.653,1.311-0.973,2.048-0.957
			c0.737,0.015,1.511,0.412,2.322,1.191l2.951,2.837l1.04-0.767l0.71,0.683l-2.832,2.945l-0.709-0.682l0.725-1.07l-2.963-2.848
			c-0.503-0.483-0.979-0.732-1.427-0.748c-0.447-0.015-0.877,0.191-1.288,0.619c-0.293,0.305-0.486,0.651-0.582,1.04
			s-0.097,0.782-0.005,1.182l3.633,3.492l1.041-0.766l0.709,0.682l-2.831,2.945L144.612,147.896z"/>
		<path fill="#7E2D3E" d="M146.329,131.544l-0.949,1.211l-1.235-0.969l0.949-1.211L146.329,131.544z M152.175,139.701l0.613-1.138
			l-4.752-3.726l-0.958,0.867l-0.781-0.612l1.735-2.214l5.706,4.474l0.958-0.867l0.774,0.607l-2.521,3.216L152.175,139.701z"/>
		<path fill="#7E2D3E" d="M158.44,136.985l0.5-1.191l-7.824-4.991l-0.869,0.956l-0.837-0.534l1.396-2.187l0.944,0.437
			c-0.173-0.444-0.237-0.892-0.191-1.342c0.046-0.449,0.212-0.897,0.497-1.346c0.563-0.883,1.352-1.345,2.364-1.388
			s2.094,0.303,3.244,1.036l0.139,0.089c1.027,0.655,1.699,1.43,2.016,2.323s0.198,1.773-0.354,2.639
			c-0.28,0.438-0.6,0.777-0.958,1.015c-0.358,0.238-0.757,0.381-1.195,0.429l2.457,1.567l0.869-0.956l0.837,0.533l-2.198,3.445
			L158.44,136.985z M156.832,127.74c-0.813-0.519-1.578-0.785-2.298-0.799c-0.72-0.015-1.278,0.29-1.677,0.913
			c-0.235,0.369-0.354,0.738-0.354,1.108s0.091,0.729,0.277,1.076l3.471,2.214c0.398,0.025,0.761-0.042,1.088-0.201
			c0.326-0.158,0.612-0.429,0.855-0.812c0.393-0.614,0.465-1.223,0.219-1.824c-0.246-0.603-0.727-1.131-1.442-1.588L156.832,127.74z
			"/>
		<path fill="#7E2D3E" d="M159.751,118.312l-0.504,1.04l-1.023-0.219c-0.241,0.092-0.472,0.242-0.691,0.45
			c-0.22,0.209-0.408,0.476-0.565,0.799c-0.238,0.492-0.309,0.909-0.209,1.253s0.302,0.59,0.606,0.737
			c0.3,0.146,0.588,0.155,0.863,0.028c0.276-0.127,0.639-0.48,1.088-1.062c0.673-0.86,1.3-1.439,1.881-1.736
			s1.169-0.301,1.764-0.013c0.675,0.328,1.089,0.865,1.241,1.613c0.151,0.749,0.015,1.563-0.413,2.444
			c-0.279,0.576-0.598,1.062-0.954,1.456s-0.749,0.711-1.177,0.949l-1.739-0.836l0.505-1.04l1.145,0.234
			c0.223-0.089,0.434-0.254,0.632-0.497c0.199-0.242,0.367-0.506,0.506-0.792c0.239-0.492,0.326-0.926,0.263-1.301
			c-0.063-0.376-0.258-0.642-0.581-0.799c-0.305-0.147-0.611-0.153-0.921-0.017s-0.693,0.492-1.152,1.068
			c-0.649,0.826-1.261,1.389-1.835,1.689c-0.574,0.3-1.156,0.307-1.747,0.021c-0.618-0.3-1.018-0.819-1.198-1.558
			c-0.18-0.739-0.065-1.53,0.344-2.373c0.28-0.577,0.606-1.059,0.979-1.444c0.373-0.387,0.767-0.668,1.182-0.843L159.751,118.312z"
			/>
	</g>
	<g>
	</g>
	<g>
	</g>
	<g>
	</g>
	<g>
	</g>
	<g>
	</g>
	<g>
	</g>
</g>
</svg>
